<svg width="207" height="60" fill="none" xmlns="http://www.w3.org/2000/svg"><path d="M115.225 36.41h-12.249c-4.577 0-8.885-1.91-11.711-4.91-3.096-3-21-30.41-21-30.41-.269-.408-.807-.68-1.346-.68H60.17c-.673 0-1.212.272-1.48.817-1.078 1.5-20.461 27.819-23.423 30.682-2.961 3-7.134 4.91-11.71 4.91-7.27 0-13.057-5.864-13.057-13.228 0-6.682 5.115-12.273 11.576-13.09.807-.137 1.48-.82 1.48-1.637V1.773C23.556.818 22.75 0 21.806 0 9.558.955 0 11.182 0 23.591c0 13.091 10.5 23.727 23.556 23.727 7.539 0 14.807-3.136 19.115-7.909 3.769-4.09 16.96-21.818 20.73-27 .269-.273.538-.682.942-.682.404 0 .807.41 1.077.682 3.365 5.182 14.403 22.364 18.172 26.455 4.442 4.773 11.576 7.909 19.114 7.909h12.384c.943 0 1.75-.818 1.75-1.773v-6.818c.135-.955-.673-1.773-1.615-1.773zM177.418.273h-.942c-.135 0-.27.137-.27.273v8.318c-.134 1.636-.942 2.727-2.422 2.727-1.077 0-1.616-.272-2.423-1.227l-.135-.136-.269-.273c-.135 0-.135 0-.269.136-.135 0-.539.41-.674.546-.134.136-.134.136-.134.273 0 0 0 .136.134.136.943 1.364 2.154 2.046 3.77 2.046 1.076 0 2.019-.41 2.826-1.091.808-.819 1.212-1.91 1.212-3.273V.682c-.135-.272-.269-.409-.404-.409zM165.17 8.32h-5.384l2.692-6.137 2.692 6.137zm1.616 0c-1.481-3.273-3.096-6.955-3.5-7.773 0-.136-.135-.136-.269-.136h-1.077c-.135 0-.27.136-.27.136-.538 1.227-4.307 9.41-5.384 11.864v.272c0 .137.135.137.269.137h.943c.134 0 .403-.137.403-.273l1.212-2.727h6.73l1.212 2.727c.134.136.269.273.404.273h.942c.135 0 .135 0 .269-.137v-.272c-.404-.819-1.077-2.319-1.884-4.091zm21.933 0h-5.385l2.693-6.137 2.692 6.136zm3.365 4.09c-.404-.818-1.077-2.318-1.885-4.09-1.48-3.273-3.096-6.955-3.499-7.773 0-.137-.135-.137-.27-.137h-1.076c-.135 0-.27.137-.27.137-.538 1.227-4.307 9.409-5.384 11.863v.273c0 .136.135.136.269.136h.942c.135 0 .404-.136.404-.272l1.212-2.728h6.73l1.212 2.728c.134.136.269.272.403.272h.943c.134 0 .134 0 .269-.136s.135-.273 0-.273zm-37.555-1.774s-.134-.136-.134-.272l-.27-.273c-.134-.136-.269-.136-.269-.136-.134 0-.134 0-.134.136-1.212 1.09-2.289 1.5-3.769 1.5-2.693 0-4.712-2.182-4.712-5.046 0-2.863 2.019-5.045 4.712-5.045 1.346 0 2.423.41 3.499 1.364.135.136.135.136.27.136.134 0 .269 0 .403-.136 0-.137.539-.682.539-.819 0 0 .135-.136 0-.272l-.269-.273C153.049.41 151.703 0 149.953 0c-3.635 0-6.327 2.864-6.327 6.545 0 3.682 2.692 6.546 6.327 6.546 1.884 0 3.23-.545 4.711-1.91l.135-.135c0-.137-.135-.137-.27-.41zm-3.5 23.728h-1.884c-.135 0-.404.136-.404.273-.673 1.5-3.769 8.59-4.846 11.045l-.269.545v.41c0 .136.135.136.269.136h2.423c.135 0 .404-.136.404-.273l3.365-7.773 3.365 7.773c.135.137.27.273.404.273h2.289c.134 0 .269 0 .269-.136 0-.137.134-.273 0-.41-.942-2.045-4.442-9.954-5.115-11.59.134-.137 0-.273-.27-.273zm43.077 0h-8.346c-.269 0-.404.136-.404.409v11.454c0 .137 0 .273.135.273.134.137.134.137.269.137h8.346c.269 0 .404-.137.404-.41v-1.636c0-.273-.27-.409-.404-.409h-5.923v-2.455h4.846c.269 0 .404-.136.404-.409v-1.636c0-.273-.135-.41-.404-.41h-4.846v-2.317h5.923c.269 0 .404-.273.404-.41V34.91c0-.409-.135-.545-.404-.545zm7.941 4.91c-2.153-.546-2.692-.818-2.692-1.636 0-.682.539-1.091 1.481-1.091.807 0 1.884.409 2.961 1.09h.135c.134 0 .269-.136.404-.272.134-.137.538-.682.807-1.091.135-.136.27-.273.27-.41.134-.136.269-.408 0-.545-1.347-.954-2.827-1.5-4.443-1.5-2.557 0-4.442 1.637-4.442 3.819 0 2.59 1.885 3.272 4.173 3.954 2.154.546 2.423.955 2.423 1.5 0 .682-.673 1.091-1.75 1.091s-2.288-.409-3.365-1.364c-.269-.136-.538-.136-.673.137-.135.136-.538.682-.808 1.09l-.403.546c0 .136-.135.136 0 .273 0 .136.134.273.403.409 0 0 .135.136.27.136 1.346.955 2.961 1.364 4.576 1.364 2.827 0 4.712-1.5 4.712-3.955 0-2.045-1.616-3-4.039-3.545zm-32.579-4.91h-1.884c-.269 0-.404.272-.404.409v6.954l-5.519-7.227c-.134-.136-.269-.136-.404-.136h-1.884c-.269 0-.404.272-.404.409v11.59c0 .273.135.41.404.41h1.884c.27 0 .404-.137.404-.41v-7.227l5.654 7.5c.134.137.269.137.403.137h1.75c.27 0 .404-.137.404-.41v-11.59c0-.273-.134-.41-.404-.41zm7.94 9.818h-2.019v-7.227h2.019c2.02 0 3.231 1.363 3.231 3.681.135 2.182-1.077 3.546-3.231 3.546zm0-9.819h-4.442c-.134 0-.269 0-.269.137-.134.136-.135.136-.135.273v11.591c0 .272.27.409.404.409h4.442c3.635 0 6.192-2.591 6.192-6.273 0-1.773-.538-3.273-1.615-4.364-1.077-1.227-2.692-1.773-4.577-1.773zm-23.417-7.227h-5.789v-9.273c0-.273-.269-.41-.403-.41h-2.019c-.27 0-.404.274-.404.41v11.455c0 .272.269.409.404.409h8.211c.269 0 .403-.273.403-.41v-1.772c0-.273-.134-.41-.403-.41zm4.443-3.681c0-2.181 1.615-3.818 3.635-3.818 2.019 0 3.634 1.636 3.634 3.818 0 2.182-1.615 3.819-3.634 3.819-2.02.136-3.635-1.5-3.635-3.819zm3.635-6.409c-3.769 0-6.731 2.864-6.731 6.546 0 3.681 2.827 6.545 6.731 6.545 3.769 0 6.73-2.864 6.73-6.545 0-3.819-2.827-6.546-6.73-6.546zm13.868 5.181c-2.153-.545-2.692-.818-2.692-1.636 0-.682.539-1.091 1.481-1.091.807 0 1.884.409 2.961 1.09h.135c.134 0 .269-.136.404-.272.134-.136.403-.546.673-.955.134-.272.269-.409.269-.545.135-.136.269-.41 0-.546-1.346-.954-2.827-1.5-4.442-1.5-2.558 0-4.442 1.637-4.442 3.819 0 2.59 1.884 3.272 4.173 3.954 2.153.546 2.423.955 2.423 1.5 0 .682-.673 1.091-1.75 1.091s-2.289-.409-3.366-1.363c-.269-.137-.538-.137-.673.136-.134.136-.538.682-.807 1.09l-.404.546c0 .137-.135.137 0 .273 0 .136.269.273.404.41h.134l.135.135c1.346.955 2.961 1.364 4.577 1.364 2.826 0 4.711-1.5 4.711-3.954.135-2.046-1.481-2.864-3.904-3.546z" fill="#fff"/><path d="M130.03 46.911h-6.999c-.943 0-1.75-.818-1.75-1.772v-7.091c0-.955.807-1.773 1.75-1.773h6.999c.943 0 1.75.818 1.75 1.773v7.09c0 .955-.807 1.773-1.75 1.773z" fill="#F9BE00"/><path d="M145.644 53.864c-1.077 0-1.75.682-1.75 1.5 0 1.773 2.557 1.636 2.557 2.864 0 .681-.538.818-1.077.818-.538 0-.942-.137-1.211-.41l-.269.546c.404.273.942.41 1.615.41 1.077 0 1.885-.546 1.885-1.637 0-1.773-2.558-1.636-2.558-2.864 0-.545.538-.818.942-.818.404 0 .943.136 1.346.273v-.682c-.403.136-.942 0-1.48 0zm5.391 0c-1.616 0-2.827 1.227-2.827 3s1.211 3 2.827 3c1.615 0 2.827-1.227 2.827-3s-1.077-3-2.827-3zm0 5.318c-1.212 0-2.019-.954-2.019-2.318s.807-2.318 2.019-2.318c1.346 0 2.019.954 2.019 2.318s-.808 2.318-2.019 2.318zM160.723 54h-.673l-1.481 2.318c-.269.41-.404.682-.538.818-.135-.272-.27-.409-.539-.818L155.877 54h-.673v5.864h.808V55.5c.134.273.269.41.403.682l1.481 2.182h.404l1.346-2.182c.135-.137.269-.41.404-.682V60h.807v-6h-.134zm4.036-.136c-1.615 0-2.827 1.227-2.827 3s1.212 3 2.827 3 2.827-1.227 2.827-3-1.212-3-2.827-3zm0 5.318c-1.211 0-2.019-.954-2.019-2.318s.808-2.318 2.019-2.318c1.346 0 2.019.954 2.019 2.318s-.807 2.318-2.019 2.318zm5.662-5.318c-1.077 0-1.75.682-1.75 1.5 0 1.773 2.558 1.636 2.558 2.864 0 .681-.539.818-1.077.818-.539 0-.942-.137-1.212-.41l-.269.546c.404.273.942.41 1.615.41 1.077 0 1.885-.546 1.885-1.637 0-1.773-2.558-1.636-2.558-2.864 0-.545.539-.818.943-.818.404 0 .942.136 1.346.273v-.682c-.404.136-.942 0-1.481 0zm7.393 0c-1.749 0-2.961 1.364-2.961 3 0 1.773 1.077 2.864 2.827 2.864.538 0 1.077-.137 1.75-.41l-.269-.681a2.253 2.253 0 01-1.347.409c-1.211 0-2.019-.955-2.019-2.318 0-1.228.808-2.319 2.154-2.319.538 0 1.077.137 1.481.41v-.682a4.97 4.97 0 00-1.616-.273zm5.256 0c-1.75 0-2.962 1.364-2.962 3 0 1.773 1.077 2.864 2.827 2.864.538 0 1.077-.137 1.75-.41l-.269-.681a2.253 2.253 0 01-1.346.409c-1.212 0-2.02-.955-2.02-2.318 0-1.228.808-2.319 2.154-2.319.539 0 1.077.137 1.481.41v-.682a4.963 4.963 0 00-1.615-.273zm3.369-.274h-.808v6.274h.808v-3c.403-.273.807-.546 1.211-.546.538 0 .673.41.673 1.091V60h.808v-2.864c0-1.09-.673-1.5-1.212-1.5-.538 0-.942.273-1.48.546V53.59zm6.59.274c-1.749 0-2.961 1.364-2.961 3 0 1.773 1.077 2.864 2.827 2.864.538 0 1.077-.137 1.75-.41l-.269-.681a2.253 2.253 0 01-1.347.409c-1.211 0-2.019-.955-2.019-2.318 0-1.228.808-2.319 2.154-2.319.539 0 1.077.137 1.481.41v-.682c-.539-.137-1.077-.273-1.616-.273z" fill="#fff"/></svg>