<svg width="212" height="59" viewBox="0 0 212 59" fill="none"
    xmlns="http://www.w3.org/2000/svg">
    <path d="M29.2639 9.87222C26.9768 11.2067 26.2742 11.3231 23.7842 12.7972C25.2361 11.2378 25.7356 10.5705 26.6333 9.26705C24.3384 9.38343 21.0053 9.66274 18.6245 10.1826C20.6931 9.08084 24.7989 7.86272 26.969 7.56789C26.4694 6.87737 22.3947 4.68942 21.3878 4.2627C24.6116 4.51097 28.5457 5.70581 30.4504 6.86961C31.1997 6.63685 31.9803 6.62134 33.3775 6.50496C33.0185 7.11013 33.0029 7.45927 31.6368 8.36704C32.0193 9.37567 31.1138 14.9309 30.3567 16.3973C30.3411 14.0852 30.1381 11.1524 29.2639 9.87222Z" fill="white"/>
    <path d="M12.5126 29.7966C11.2012 29.3078 10.2489 28.7492 9.21068 27.7794C9.52292 26.9259 9.88198 26.2587 10.4596 25.3975C9.39022 25.5527 8.60183 25.6768 7.68074 25.8475C6.93138 24.544 6.58792 23.2871 6.21324 21.5337C6.01029 23.388 5.93223 24.7147 6.18982 26.1889C5.34679 26.4216 4.74574 26.6311 4.05103 26.9337C5.02675 27.5234 5.81514 27.9811 6.90015 28.4854C7.48559 29.7346 8.08664 30.5725 9.07018 31.5346C8.84381 30.7122 8.78136 30.0682 8.87503 29.207C10.0927 29.5639 11.1309 29.7501 12.5126 29.7966Z" fill="white"/>
    <path d="M15.9397 11.3306C15.5338 11.8582 15.0577 12.8435 14.925 13.3013C18.3127 13.759 21.0291 15.4892 21.0291 15.4892C18.0629 14.9694 16.5096 15.0314 15.4011 15.1323C14.3005 15.2332 14.0741 15.3651 14.0741 15.3651C13.2779 17.103 12.794 20.0901 12.794 20.0901C12.2554 18.8021 11.4748 16.2107 11.4748 16.2107C9.98388 17.0021 6.5415 20.222 6.5415 20.222C8.43052 16.459 10.3507 14.7521 10.3507 14.7521C9.68725 14.0849 7.96217 13.759 6.69762 13.6969C7.35331 13.4332 9.03937 13.1151 10.3351 13.0607C11.6309 13.0219 12.4193 13.0995 12.4193 13.0995C13.5746 12.184 15.3309 11.4159 15.9397 11.3306Z" fill="white"/>
    <path d="M19.53 27.4608C18.9289 28.2677 18.4137 28.9039 17.758 29.641C16.6184 29.9591 15.7051 30.0755 14.5967 30.0755C15.2758 30.4246 15.9393 30.6341 16.6496 30.7815C15.9393 31.4255 15.3382 31.8755 14.6435 32.3177C15.7988 32.0462 17.3287 31.5574 18.4606 30.8901C19.0538 30.9134 19.608 30.8746 20.0139 30.797C19.9046 30.4556 19.8422 30.1996 19.7563 29.7574C20.8257 28.9349 21.5985 28.1901 22.4884 27.2979C21.5439 27.9496 20.7243 28.4461 19.6314 28.9582C19.5846 28.4461 19.5534 28.0272 19.53 27.4608Z" fill="white"/>
    <path d="M0.351074 37.0119H37.4132V0.173828H0.351074V37.0119ZM36.6092 36.2128H1.14727V0.965211H36.6092V36.2128Z" fill="white"/>
    <path d="M4.5038 49.2472C4.41013 48.4558 4.21498 47.6877 3.06752 47.6877C2.35719 47.6877 1.74834 48.0291 1.74834 48.8205C1.74834 50.6826 5.9869 50.6748 5.9869 53.3516C5.9869 55.0585 4.80042 55.912 3.06752 55.912C1.84201 55.912 0.756995 55.3766 0.0856934 54.6007L0.796024 53.5223C1.38927 54.205 2.28694 54.6007 3.12997 54.6007C3.94958 54.6007 4.51941 54.2826 4.51941 53.5068C4.51941 51.8386 0.296451 51.7611 0.296451 48.9291C0.296451 47.1989 1.60783 46.3843 3.08313 46.3843C5.20632 46.3843 5.81518 47.8429 5.89323 49.0378L4.5038 49.2472Z" fill="white"/>
    <path d="M8.72699 52.6302C8.78944 54.244 9.45293 54.7095 10.4443 54.7095C11.2092 54.7095 11.8805 54.3294 12.2786 54.0268L12.505 55.144C11.8727 55.5397 11.2092 55.9044 10.1555 55.9044C8.41476 55.9044 7.22827 54.8647 7.22827 52.2578C7.22827 49.6742 8.27425 48.5957 10.0696 48.5957C11.8884 48.5957 12.6065 49.775 12.6065 51.5207V52.638H8.72699V52.6302ZM11.2092 51.5207C11.2092 50.3414 10.8658 49.7905 10.0306 49.7905C9.17192 49.7905 8.80505 50.3026 8.7348 51.5207H11.2092Z" fill="white"/>
    <path d="M19.6394 50.0465L18.6793 49.9922C18.9291 50.3181 19.0228 50.7138 19.0228 51.2646C19.0228 52.8396 17.9924 53.9181 16.4625 53.9181C16.158 53.9181 16.0097 53.9026 15.7755 53.8405C15.5101 54.0267 15.3384 54.1431 15.3384 54.3758C15.3384 55.1129 19.5926 54.2439 19.5926 56.75C19.5926 58.2629 17.9924 59 16.2673 59C14.5266 59 13.3792 58.3715 13.3792 57.2543C13.3792 56.5172 13.8553 55.9896 14.5812 55.6017C14.2612 55.431 13.988 55.1672 13.988 54.6164C13.988 54.0655 14.3861 53.7008 14.831 53.3827C14.2378 52.9327 13.8787 52.2112 13.8787 51.2413C13.8787 49.6275 14.9091 48.5879 16.4781 48.5879C16.8449 48.5879 17.1884 48.65 17.485 48.7586H19.6472V50.0465H19.6394ZM14.7296 57.0991C14.7296 57.7276 15.4789 57.8828 16.2985 57.8828C17.2118 57.8828 18.1641 57.5259 18.1641 56.9207C18.1641 56.0672 16.9776 56.0827 15.8926 55.9353C15.3228 56.2069 14.7296 56.6026 14.7296 57.0991ZM16.4625 49.7439C15.6975 49.7439 15.2213 50.1784 15.2213 51.2491C15.2213 52.3276 15.6975 52.762 16.4625 52.762C17.2274 52.762 17.7036 52.3276 17.7036 51.2491C17.7036 50.1784 17.2274 49.7439 16.4625 49.7439Z" fill="white"/>
    <path d="M22.0361 48.7588V53.5381C22.0361 54.4304 22.5903 54.7097 23.2226 54.7097C23.8549 54.7097 24.4091 54.4381 24.4091 53.5381V48.7588H25.8454V53.4993C25.8454 55.1286 24.7369 55.9045 23.2148 55.9045C21.6927 55.9045 20.592 55.1286 20.592 53.4993V48.7588H22.0361Z" fill="white"/>
    <path d="M29.0458 48.7586V49.4413C29.6234 48.8284 30.2088 48.5879 30.8255 48.5879C31.8715 48.5879 32.0666 49.5344 32.0666 50.5586L30.8411 50.706C30.8255 50.287 30.7865 50 30.3884 50C30.0059 50 29.6 50.3181 29.1863 50.737V55.7414H27.75V48.7663H29.0458V48.7586Z" fill="white"/>
    <path d="M38.3732 52.2811C38.3732 54.6941 37.3741 55.9044 35.4851 55.9044C33.6351 55.9044 32.5813 54.857 32.5813 52.2579C32.5813 49.6975 33.5961 48.5957 35.4851 48.5957C37.4521 48.588 38.3732 49.6432 38.3732 52.2811ZM34.0566 52.2501C34.0566 54.1432 34.5328 54.7096 35.4851 54.7096C36.4374 54.7096 36.8979 54.1432 36.8979 52.2811C36.8979 50.3415 36.4374 49.7828 35.4851 49.7828C34.5328 49.7828 34.0566 50.3337 34.0566 52.2501Z" fill="white"/>
    <path d="M43.0103 50.8612C42.9557 50.2405 42.6825 49.7828 41.9253 49.7828C41.3711 49.7828 40.9496 50.0155 40.9496 50.5431C40.9496 51.8699 44.228 51.7535 44.228 53.8639C44.228 55.1208 43.3303 55.8966 41.8238 55.8966C40.731 55.8966 39.8724 55.4777 39.3572 54.9811L39.8333 53.9337C40.3251 54.407 41.051 54.7096 41.7848 54.7096C42.339 54.7096 42.7996 54.5001 42.7996 53.9492C42.7996 52.8475 39.5679 52.863 39.5679 50.644C39.5679 49.4104 40.45 48.5957 41.9175 48.5957C43.5411 48.5957 44.2124 49.5267 44.2124 50.6595L43.0103 50.8612Z" fill="white"/>
    <path d="M50.8474 55.5784V58.4414L49.4111 58.7517V48.7586H50.7069V49.387C51.2377 48.9525 51.8934 48.5879 52.7676 48.5879C53.9541 48.5879 55.1016 49.2939 55.1016 52.1724C55.1016 54.8801 53.8605 55.9043 52.2368 55.9043C51.7997 55.9043 51.2845 55.7724 50.8474 55.5784ZM50.8474 54.3138C51.2533 54.5776 51.6748 54.7095 52.0885 54.7095C52.9159 54.7095 53.5794 54.0655 53.5794 52.1724C53.5794 50.3181 52.9316 49.8758 52.2603 49.8758C51.6904 49.8758 51.3079 50.0698 50.8474 50.3646V54.3138Z" fill="white"/>
    <path d="M59.9095 50.7061C59.9095 50.0466 59.4723 49.7905 58.8791 49.7905C58.2624 49.7905 57.7394 50.1474 57.7394 50.869L56.4749 50.7371C56.5139 49.3173 57.6536 48.5957 58.9727 48.5957C60.4246 48.5957 61.3457 49.3328 61.3457 50.5819V54.2207C61.3457 54.5466 61.5018 54.694 61.7282 54.694C61.9546 54.694 62.1888 54.5854 62.4151 54.4147L62.5088 55.4544C62.2434 55.7337 61.7672 55.9121 61.2911 55.9121C60.7915 55.9121 60.1827 55.7026 60.1202 54.9423C59.5894 55.6018 58.8401 55.9121 58.0985 55.9121C56.9979 55.9121 56.2251 55.2837 56.2251 54.019C56.2251 52.2345 57.9424 51.4974 59.9095 51.513V50.7061ZM59.9095 52.5837C58.6839 52.5449 57.6536 52.9949 57.6536 53.8871C57.6536 54.4225 57.8877 54.7173 58.442 54.7173C58.9806 54.7173 59.5114 54.3759 59.9095 53.9414V52.5837Z" fill="white"/>
    <path d="M64.7648 48.7586V49.4413C65.3424 48.8284 65.9278 48.5879 66.5445 48.5879C67.5905 48.5879 67.7856 49.5344 67.7856 50.5586L66.5601 50.706C66.5445 50.287 66.5055 50 66.1152 50C65.7327 50 65.319 50.3181 64.9131 50.737V55.7414H63.4768V48.7663H64.7648V48.7586Z" fill="white"/>
    <path d="M72.1182 50.7061C72.1182 50.0466 71.6811 49.7905 71.0878 49.7905C70.4712 49.7905 69.9482 50.1474 69.9482 50.869L68.6836 50.7371C68.7227 49.3173 69.8623 48.5957 71.1815 48.5957C72.6334 48.5957 73.5623 49.3328 73.5623 50.5819V54.2207C73.5623 54.5466 73.7184 54.694 73.9448 54.694C74.1711 54.694 74.4053 54.5854 74.6317 54.4147L74.7253 55.4544C74.46 55.7337 73.9838 55.9121 73.5076 55.9121C73.0081 55.9121 72.3992 55.7026 72.3368 54.9423C71.806 55.6018 71.0566 55.9121 70.3151 55.9121C69.2144 55.9121 68.4417 55.2837 68.4417 54.019C68.4417 52.2345 70.1589 51.4974 72.126 51.513V50.7061H72.1182ZM72.1182 52.5837C70.8927 52.5449 69.8623 52.9949 69.8623 53.8871C69.8623 54.4225 70.0965 54.7173 70.6507 54.7173C71.1893 54.7173 71.7201 54.3759 72.1182 53.9414V52.5837Z" fill="white"/>
    <path d="M80.4861 48.7588V53.5381C80.4861 54.4304 81.0403 54.7097 81.6726 54.7097C82.3048 54.7097 82.859 54.4381 82.859 53.5381V48.7588H84.2953V53.4993C84.2953 55.1286 83.1869 55.9045 81.6647 55.9045C80.1426 55.9045 79.042 55.1286 79.042 53.4993V48.7588H80.4861Z" fill="white"/>
    <path d="M87.4955 49.387C88.0497 48.9836 88.7366 48.5879 89.6733 48.5879C90.9379 48.5879 91.7341 49.2862 91.7341 50.8069V55.7336H90.2978V51.1017C90.2978 50.2482 90.009 49.9457 89.205 49.9457C88.6742 49.9457 88.0965 50.1707 87.6438 50.4577V55.7336H86.2075V48.7586H87.5033V49.387H87.4955Z" fill="white"/>
    <path d="M98.4865 49.387C99.0173 48.9836 99.7276 48.5879 100.602 48.5879C101.39 48.5879 101.882 48.8362 102.241 49.4026C102.951 48.9448 103.638 48.5879 104.489 48.5879C105.746 48.5879 106.456 49.2862 106.456 50.8069V55.7336H105.02V51.0552C105.02 50.1862 104.676 49.9379 103.966 49.9379C103.49 49.9379 102.936 50.1862 102.514 50.45C102.538 50.6207 102.553 50.8146 102.553 51.0164V55.7259H101.117V51.2491C101.117 50.2638 100.93 49.9379 100.063 49.9379C99.5715 49.9379 99.0875 50.1707 98.6504 50.45V55.7259H97.2141V48.7508H98.5099V49.387H98.4865Z" fill="white"/>
    <path d="M109.625 48.7588V53.5381C109.625 54.4304 110.179 54.7097 110.812 54.7097C111.444 54.7097 111.998 54.4381 111.998 53.5381V48.7588H113.442V53.4993C113.442 55.1286 112.334 55.9045 110.812 55.9045C109.297 55.9045 108.181 55.1286 108.181 53.4993V48.7588H109.625Z" fill="white"/>
    <path d="M116.634 49.387C117.189 48.9836 117.876 48.5879 118.812 48.5879C120.077 48.5879 120.873 49.2862 120.873 50.8069V55.7336H119.437V51.1017C119.437 50.2482 119.148 49.9457 118.344 49.9457C117.813 49.9457 117.235 50.1707 116.791 50.4577V55.7336H115.354V48.7586H116.65V49.387H116.634Z" fill="white"/>
    <path d="M126.735 54.9032C126.22 55.4774 125.572 55.9041 124.714 55.9041C123.582 55.9041 122.31 55.0351 122.31 52.2653C122.31 49.573 123.512 48.5877 124.807 48.5877C125.401 48.5877 125.9 48.7351 126.509 49.0221V46.1437L127.945 45.8799V54.2049C127.945 54.5308 128.102 54.6782 128.328 54.6782C128.554 54.6782 128.788 54.5696 129.015 54.3989L129.108 55.4386C128.843 55.7179 128.367 55.8963 127.891 55.8963C127.344 55.9041 126.798 55.6636 126.735 54.9032ZM126.509 50.1782C126.088 49.9687 125.705 49.7825 125.112 49.7825C124.448 49.7825 123.816 50.217 123.816 52.1954C123.816 53.9023 124.394 54.5851 125.034 54.5851C125.682 54.5851 126.166 54.1894 126.509 53.7937V50.1782Z" fill="white"/>
    <path d="M135.501 52.2811C135.501 54.6941 134.494 55.9044 132.605 55.9044C130.755 55.9044 129.701 54.857 129.701 52.2579C129.701 49.6975 130.716 48.5957 132.605 48.5957C134.572 48.588 135.501 49.6432 135.501 52.2811ZM131.185 52.2501C131.185 54.1432 131.661 54.7096 132.613 54.7096C133.565 54.7096 134.026 54.1432 134.026 52.2811C134.026 50.3415 133.565 49.7828 132.613 49.7828C131.661 49.7828 131.185 50.3337 131.185 52.2501Z" fill="white"/>
    <path d="M141.653 52.6302C141.723 54.244 142.378 54.7095 143.37 54.7095C144.135 54.7095 144.806 54.3294 145.204 54.0268L145.431 55.144C144.798 55.5397 144.135 55.9044 143.081 55.9044C141.34 55.9044 140.154 54.8647 140.154 52.2578C140.154 49.6742 141.2 48.5957 142.995 48.5957C144.814 48.5957 145.532 49.775 145.532 51.5207V52.638H141.653V52.6302ZM144.135 51.5207C144.135 50.3414 143.791 49.7905 142.956 49.7905C142.097 49.7905 141.731 50.3026 141.66 51.5207H144.135Z" fill="white"/>
    <path d="M148.397 49.387C148.951 48.9836 149.638 48.5879 150.575 48.5879C151.839 48.5879 152.635 49.2862 152.635 50.8069V55.7336H151.199V51.1017C151.199 50.2482 150.91 49.9457 150.106 49.9457C149.576 49.9457 148.998 50.1707 148.545 50.4577V55.7336H147.109V48.7586H148.405V49.387H148.397Z" fill="white"/>
    <path d="M159.114 52.6302C159.185 54.244 159.84 54.7095 160.832 54.7095C161.597 54.7095 162.268 54.3294 162.666 54.0268L162.892 55.144C162.26 55.5397 161.597 55.9044 160.543 55.9044C158.802 55.9044 157.616 54.8647 157.616 52.2578C157.616 49.6742 158.662 48.5957 160.457 48.5957C162.276 48.5957 162.994 49.775 162.994 51.5207V52.638H159.114V52.6302ZM161.597 51.5207C161.597 50.3414 161.253 49.7905 160.418 49.7905C159.559 49.7905 159.192 50.3026 159.122 51.5207H161.597Z" fill="white"/>
    <path d="M165.14 48.7588L166.897 54.1588L168.567 48.7588H170.011L167.669 55.7338H165.999L163.603 48.7588H165.14Z" fill="white"/>
    <path d="M176.427 52.2811C176.427 54.6941 175.428 55.9044 173.539 55.9044C171.689 55.9044 170.635 54.857 170.635 52.2579C170.635 49.6975 171.65 48.5957 173.539 48.5957C175.499 48.588 176.427 49.6432 176.427 52.2811ZM172.111 52.2501C172.111 54.1432 172.587 54.7096 173.539 54.7096C174.492 54.7096 174.952 54.1432 174.952 52.2811C174.952 50.3415 174.492 49.7828 173.539 49.7828C172.587 49.7828 172.111 50.3337 172.111 52.2501Z" fill="white"/>
    <path d="M179.433 45.8877V54.1351C179.433 54.5153 179.643 54.6627 179.924 54.6627C180.229 54.6627 180.502 54.5464 180.783 54.3834L180.924 55.4851C180.385 55.7722 179.963 55.9041 179.456 55.9041C178.285 55.9041 177.989 55.0507 177.989 54.1351V46.1515L179.433 45.8877Z" fill="white"/>
    <path d="M183.156 48.7588V53.5381C183.156 54.4304 183.711 54.7097 184.343 54.7097C184.975 54.7097 185.529 54.4381 185.529 53.5381V48.7588H186.966V53.4993C186.966 55.1286 185.857 55.9045 184.343 55.9045C182.821 55.9045 181.712 55.1286 181.712 53.4993V48.7588H183.156Z" fill="white"/>
    <path d="M192.296 51.1094C192.257 50.4266 191.961 49.7827 191.172 49.7827C190.298 49.7827 189.9 50.2792 189.9 52.2499C189.9 54.2206 190.493 54.7017 191.539 54.7017C192.375 54.7017 192.913 54.3448 193.311 54.0732L193.584 55.1362C192.991 55.5474 192.265 55.8965 191.251 55.8965C189.424 55.8965 188.401 54.756 188.401 52.2344C188.401 49.8059 189.283 48.5801 191.227 48.5801C192.921 48.5801 193.561 49.6197 193.592 50.9698C193.155 51.0163 192.726 51.0551 192.296 51.1094Z" fill="white"/>
    <path d="M196.582 47.8276H195.146V46.2759H196.582V47.8276ZM196.582 55.7337H195.146V48.7586H196.582V55.7337Z" fill="white"/>
    <path d="M203.966 52.2808C203.966 54.6938 202.959 55.9041 201.07 55.9041C199.22 55.9041 198.166 54.8567 198.166 52.2575C198.166 49.6972 199.181 48.5955 201.07 48.5955C203.037 48.5877 203.966 49.6429 203.966 52.2808ZM199.649 52.2498C199.649 54.1429 200.126 54.7093 201.078 54.7093C202.03 54.7093 202.491 54.1429 202.491 52.2808C202.491 50.3412 202.03 49.7825 201.078 49.7825C200.126 49.7825 199.649 50.3334 199.649 52.2498ZM203.146 45.8877L201.616 47.9593H200.391L201.687 45.8877H203.146Z" fill="white"/>
    <path d="M206.847 49.387C207.401 48.9836 208.088 48.5879 209.025 48.5879C210.289 48.5879 211.086 49.2862 211.086 50.8069V55.7336H209.649V51.1017C209.649 50.2482 209.361 49.9457 208.549 49.9457C208.018 49.9457 207.44 50.1707 206.995 50.4577V55.7336H205.551V48.7586H206.847V49.387Z" fill="white"/>
    <path d="M46.6867 5.25592C46.7804 6.54386 46.8507 9.75594 46.8507 10.9353C46.8507 12.0137 46.8429 15.6292 46.6711 17.1965L46.6555 17.3206H52.346C55.1248 17.3206 58.0911 16.4439 58.0911 13.9766C58.0911 12.4327 56.967 11.2844 54.8595 10.6559C56.405 10.2447 57.451 9.1818 57.451 7.94817C57.451 5.93868 55.1248 5.17058 52.9548 5.12402C52.947 5.12402 46.6789 5.12402 46.6789 5.12402L46.6867 5.25592ZM51.0814 6.4973C53.4544 6.50506 54.3365 6.99386 54.3365 8.28179C54.3365 8.63093 54.2272 8.92576 54.0164 9.1818C53.5637 9.7249 52.6582 10.0042 51.5342 9.9499H51.4795L50.8238 11.6646H51.4873C52.7987 11.6258 53.9384 12.037 54.516 12.7508C54.7892 13.0766 54.9219 13.4491 54.9219 13.8525C54.9219 15.2103 53.7276 15.9008 51.3937 15.9008C51.0034 15.9008 50.3633 15.9008 49.9574 15.8698C49.8715 14.0853 49.8715 11.6568 49.8715 10.943C49.8715 10.0896 49.9106 8.19645 49.9652 6.57489C50.2228 6.52834 50.6755 6.48955 51.0814 6.4973Z" fill="white"/>
    <path d="M71.1966 5.13916H68.4412L68.5582 8.20384C68.6051 9.7323 68.6597 11.2918 68.7612 12.8047C68.5739 12.347 68.4177 12.0909 67.5981 10.8806C67.5747 10.8418 64.7022 6.41934 63.7108 5.17795L63.6718 5.13916H60.448L60.4558 5.25554C60.5495 6.53572 60.6197 9.74782 60.6197 10.9349C60.6197 12.0134 60.6041 15.6367 60.4402 17.2039L60.4246 17.3358H63.2815L63.2737 17.2117C63.1098 14.2246 63.1098 11.2297 63.1098 8.32798V8.32022C63.2034 8.66936 63.3439 8.98747 63.7967 9.65471C63.8435 9.7323 68.7534 16.8703 69.0032 17.2893L69.0266 17.3436H71.3215L71.3059 17.2117C71.1342 15.6444 71.1264 12.0211 71.1264 10.9427C71.1264 9.75558 71.1966 6.54348 71.2903 5.2633L71.2981 5.14692H71.1966V5.13916Z" fill="white"/>
    <path d="M74.5222 5.25592C74.6159 6.54386 74.6861 9.75594 74.6861 10.9353C74.6861 12.0137 74.6705 15.637 74.5066 17.1965L74.4988 17.3206H77.9021L77.8865 17.1965C77.7694 16.0792 77.7304 13.9378 77.7148 12.2853C77.8553 12.293 78.3393 12.3163 78.3393 12.3163L78.8154 12.3396C83.3038 12.3396 85.4816 11.1447 85.4816 8.66973C85.4816 5.84558 82.4217 5.18609 79.8614 5.13178L74.5144 5.12402L74.5222 5.25592ZM78.6983 6.60593C80.2907 6.57489 81.4148 6.90851 81.9534 7.568C82.1953 7.87058 82.3202 8.243 82.3202 8.67748C82.3202 10.4387 80.3376 10.8111 78.6749 10.8111L78.0036 10.7878C78.0036 10.7878 77.8397 10.7646 77.7304 10.749C77.7226 10.3456 77.7148 9.81801 77.7148 9.20507C77.7148 8.42921 77.7226 7.53696 77.7538 6.69127C77.9568 6.64472 78.3314 6.61368 78.6983 6.60593Z" fill="white"/>
    <path d="M91.9841 5.25592C92.0778 6.54386 92.148 9.75594 92.148 10.9353C92.148 12.0137 92.1324 15.637 91.9685 17.1965L91.9529 17.3206H95.364L95.3484 17.1965C95.2313 16.0792 95.1923 13.9378 95.1767 12.2853C95.3172 12.293 95.8012 12.3163 95.8012 12.3163L96.2851 12.3396C100.773 12.3396 102.959 11.1447 102.959 8.66973C102.959 5.84558 99.8992 5.18609 97.3311 5.13178L91.9919 5.12402L91.9841 5.25592ZM96.1602 6.60593C97.7526 6.57489 98.8767 6.90851 99.4153 7.568C99.6572 7.87058 99.7821 8.243 99.7821 8.67748C99.7821 10.4387 97.7995 10.8111 96.129 10.8111L95.4577 10.7878C95.4577 10.7878 95.2938 10.7646 95.1923 10.749C95.1767 10.3456 95.1689 9.81025 95.1689 9.19731C95.1689 8.42145 95.1845 7.5292 95.2157 6.68351C95.4265 6.64472 95.7933 6.61368 96.1602 6.60593Z" fill="white"/>
    <path d="M107.51 5.13916H107.447L107.424 5.20123C106.792 6.93141 102.717 15.7996 102.077 17.1573L101.999 17.3203H104.918L104.942 17.2505C105.199 16.4203 105.527 15.4737 105.91 14.4496C106.019 14.4496 108.322 14.4108 108.322 14.4108L110.312 14.4341C110.312 14.4341 110.663 14.4496 110.749 14.4496C111.28 15.7608 111.663 16.7617 111.842 17.2505L111.866 17.3203H115.246L109.797 5.13916H109.742H107.51ZM108.337 8.73143C108.611 9.29781 109.305 10.9349 110.094 12.859C109.977 12.859 109.836 12.8668 109.836 12.8668L108.337 12.8823C108.337 12.8823 106.784 12.859 106.542 12.8513C107.182 11.3151 107.799 9.9185 108.337 8.73143Z" fill="white"/>
    <path d="M116.595 5.25559C116.681 6.53577 116.759 9.7556 116.759 10.9349C116.759 12.0134 116.744 15.6367 116.572 17.1961L116.556 17.328H119.968L119.952 17.1961C119.78 15.6289 119.772 12.0056 119.772 10.9272C119.772 10.0815 119.811 8.1806 119.874 6.66767C120.155 6.62887 120.53 6.59784 120.787 6.59008C122.38 6.55905 123.504 6.89267 124.042 7.55215C124.284 7.84698 124.417 8.21939 124.417 8.66164C124.417 10.0659 123.082 10.7797 121.849 10.8496C121.443 10.8651 121.131 10.8108 121.123 10.8108L120.889 10.772L121.037 10.9892C122.231 12.7504 124.042 15.8151 124.807 17.2737L124.838 17.328H128.492L128.382 17.1496C128.257 16.9479 125.861 13.4565 124.846 11.9668C124.846 11.9668 124.807 11.9203 124.784 11.8815C126.642 11.3228 127.555 10.2754 127.555 8.67715C127.555 5.85301 124.495 5.20128 121.927 5.14697H116.58L116.595 5.25559Z" fill="white"/>
    <path d="M133.331 5.13135H130.061L130.076 5.24773C130.17 6.53566 130.24 9.7555 130.24 10.9348C130.24 12.0055 130.224 15.6288 130.061 17.1961L130.053 17.3202H133.456L133.44 17.1961C133.277 15.6288 133.261 12.0055 133.261 10.9348C133.261 9.7555 133.331 6.53566 133.425 5.24773L133.433 5.13135H133.331Z" fill="white"/>
    <path d="M136.516 5.25592C136.61 6.5361 136.68 9.75594 136.68 10.9353C136.68 12.0137 136.672 15.6292 136.5 17.1965L136.485 17.3206H142.175C144.954 17.3206 147.92 16.4439 147.92 13.9766C147.92 12.4327 146.796 11.2844 144.689 10.6559C146.234 10.2447 147.288 9.1818 147.288 7.94817C147.288 5.93868 144.97 5.17058 142.792 5.12402H136.516V5.25592ZM140.911 6.4973C143.284 6.50506 144.166 6.99386 144.166 8.28179C144.166 8.63093 144.057 8.92576 143.846 9.1818C143.393 9.7249 142.488 10.0042 141.364 9.9499H141.301L140.653 11.6646H141.317C142.628 11.6258 143.752 12.037 144.338 12.7508C144.611 13.0766 144.743 13.4491 144.743 13.8525C144.743 15.2103 143.557 15.9008 141.223 15.9008C140.825 15.9008 140.185 15.9008 139.779 15.8698C139.693 14.0853 139.693 11.6568 139.693 10.943C139.693 10.0896 139.732 8.18869 139.795 6.57489C140.052 6.52834 140.505 6.48955 140.911 6.4973Z" fill="white"/>
    <path d="M156.296 5.13135H154.001L153.978 5.20118C153.306 7.03998 148.99 16.3892 148.631 17.1573L148.553 17.3202H151.48L151.496 17.2504C151.745 16.4202 152.081 15.4736 152.463 14.4572C152.565 14.4495 154.875 14.4185 154.875 14.4185L156.866 14.4495C156.866 14.4495 157.209 14.4572 157.303 14.4572C157.834 15.7685 158.216 16.7616 158.388 17.2581L158.411 17.3202H161.791L156.351 5.13135H156.296ZM154.891 8.7236C155.164 9.29774 155.859 10.9271 156.647 12.8512C156.53 12.8512 156.39 12.8667 156.39 12.8667L154.883 12.89C154.883 12.89 153.338 12.859 153.096 12.8512C153.728 11.2917 154.352 9.91068 154.891 8.7236Z" fill="white"/>
    <path d="M162.744 8.29735C162.744 10.4388 164.914 11.3077 166.818 12.0836C168.309 12.681 169.839 13.3017 169.839 14.3181C169.839 14.6284 169.769 14.8767 169.605 15.0707C169.254 15.4897 168.52 15.6681 167.373 15.6138C166.248 15.5595 164.961 15.1948 163.54 14.5353L162.939 14.2638L162.947 14.7371V16.925L163.329 17.0104L163.563 17.0569C164.281 17.2276 165.64 17.5457 167.013 17.5457C170.604 17.5457 172.751 16.1259 172.751 13.7595C172.751 11.5638 170.534 10.687 168.582 9.91116C167.138 9.33702 165.647 8.74736 165.647 7.80856C165.647 7.537 165.647 6.72234 167.49 6.72234C168.871 6.72234 170.222 7.28096 170.955 7.58355L171.658 7.87063L171.65 7.41286V5.18612L170.955 5.06198C170.261 4.93008 169.105 4.70508 167.903 4.70508C164.82 4.71284 162.744 6.1482 162.744 8.29735Z" fill="white"/>
    <path d="M55.2108 23.7059C54.6176 23.3567 53.8917 23.0696 52.9471 23.0696C50.1839 23.0696 49.2316 25.2421 49.2316 27.0964C49.2316 29.6723 50.824 30.9758 52.9628 30.9758C54.2976 30.9758 55.2967 30.3551 56.1944 29.5714L56.21 31.8059C55.2967 32.1706 54.1805 32.4887 52.4944 32.4887C48.6383 32.4887 46.2263 30.1068 46.2263 27.0731C46.2263 23.8765 48.7788 21.5645 52.9784 21.5645C53.9619 21.5645 54.922 21.7196 55.8431 21.9446L55.2108 23.7059Z" fill="white"/>
    <path d="M64.523 21.7432C64.9289 22.8294 68.4181 30.5493 69.2377 32.3027H66.3105C66.1466 31.8217 65.7954 30.945 65.3426 29.8122C64.7338 29.7967 64.1171 29.7812 63.2507 29.7812C62.4467 29.7812 61.8378 29.7967 61.1431 29.8122C60.8074 30.7044 60.5342 31.5191 60.2923 32.3027H57.7397C58.3486 30.9915 61.9159 23.3027 62.4779 21.7432H64.523ZM64.7806 28.4234L63.2663 24.8466C62.7823 25.8708 62.2515 27.0734 61.6895 28.4234C62.1422 28.4389 62.7667 28.4544 63.2663 28.4544C63.7502 28.4544 64.2654 28.4389 64.7806 28.4234Z" fill="white"/>
    <path d="M75.7248 21.7432C77.9573 21.7432 80.6112 22.3639 80.6112 24.8078C80.6112 26.1811 79.8072 27.0967 78.2148 27.5855C78.4412 28.0355 81.0093 31.9148 81.4308 32.3027H78.2617C77.567 30.9915 75.9824 28.338 74.8349 26.6156C75.0301 26.6622 75.3189 26.6932 75.6545 26.6932C76.5834 26.6932 77.887 26.026 77.887 24.8078C77.887 23.2871 76.037 23.0156 75.1081 23.0156C74.6398 23.0156 74.187 23.0466 73.9529 23.0777C73.8904 24.3889 73.8592 26.0337 73.8592 26.7708C73.8592 27.7096 73.8592 30.8286 74.0231 32.3027H71.0647C71.213 30.8441 71.2442 28.9587 71.2442 26.7708C71.2442 24.932 71.2286 22.7285 71.0959 21.7509H75.7248V21.7432Z" fill="white"/>
    <path d="M87.5189 21.7432C91.9917 21.7432 93.709 24.0785 93.709 27.0035C93.709 30.0217 92.0385 32.295 87.355 32.295H83.4131C83.5614 30.8751 83.5614 28.9354 83.5614 26.7785C83.5614 25.7544 83.5614 23.1164 83.4131 21.7432H87.5189ZM86.27 23.0699C86.2076 23.7604 86.192 25.5604 86.192 26.7785C86.192 28.3148 86.192 29.5251 86.2544 30.9527C86.4105 30.9682 86.6525 30.9993 87.0116 30.9993C89.5797 30.9993 90.9145 30.2001 90.9145 26.957C90.9145 23.8613 89.5485 22.9923 86.9569 23.0466L86.27 23.0699Z" fill="white"/>
    <path d="M99.1577 21.7432C99.064 22.9613 99.0015 25.7389 99.0015 26.7785C99.0015 27.7018 99.0171 30.8363 99.1577 32.295H96.2148C96.371 30.8363 96.3788 27.6941 96.3788 26.7785C96.3788 25.7544 96.3163 22.9613 96.2461 21.7432H99.1577Z" fill="white"/>
    <path d="M110.421 21.7432V23.2716C109.586 23.2251 107.51 23.163 106.807 23.163C106.292 23.163 105.715 23.163 105.121 23.2096C105.075 23.8613 105.059 24.6759 105.059 25.382C105.059 25.7311 105.059 26.0492 105.074 26.2975L108.774 26.2354V27.8803L105.074 27.7329C105.09 29.0751 105.106 31.1544 105.238 32.3027H102.264C102.444 30.8441 102.444 27.7018 102.444 26.7863C102.444 25.7622 102.366 22.969 102.272 21.7509H110.421V21.7432Z" fill="white"/>
    <path d="M29.2639 9.87222C26.9768 11.2067 26.2742 11.3231 23.7842 12.7972C25.2361 11.2378 25.7356 10.5705 26.6333 9.26705C24.3384 9.38343 21.0053 9.66274 18.6245 10.1826C20.6931 9.08084 24.7989 7.86272 26.969 7.56789C26.4694 6.87737 22.3947 4.68942 21.3878 4.2627C24.6116 4.51097 28.5457 5.70581 30.4504 6.86961C31.1997 6.63685 31.9803 6.62134 33.3775 6.50496C33.0185 7.11013 33.0029 7.45927 31.6368 8.36704C32.0193 9.37567 31.1138 14.9309 30.3567 16.3973C30.3411 14.0852 30.1381 11.1524 29.2639 9.87222Z" fill="white"/>
    <path d="M12.5126 29.7966C11.2012 29.3078 10.2489 28.7492 9.21068 27.7794C9.52292 26.9259 9.88198 26.2587 10.4596 25.3975C9.39022 25.5527 8.60183 25.6768 7.68074 25.8475C6.93138 24.544 6.58792 23.2871 6.21324 21.5337C6.01029 23.388 5.93223 24.7147 6.18982 26.1889C5.34679 26.4216 4.74574 26.6311 4.05103 26.9337C5.02675 27.5234 5.81514 27.9811 6.90015 28.4854C7.48559 29.7346 8.08664 30.5725 9.07018 31.5346C8.84381 30.7122 8.78136 30.0682 8.87503 29.207C10.0927 29.5639 11.1309 29.7501 12.5126 29.7966Z" fill="white"/>
    <path d="M15.9397 11.3306C15.5338 11.8582 15.0577 12.8435 14.925 13.3013C18.3127 13.759 21.0291 15.4892 21.0291 15.4892C18.0629 14.9694 16.5096 15.0314 15.4011 15.1323C14.3005 15.2332 14.0741 15.3651 14.0741 15.3651C13.2779 17.103 12.794 20.0901 12.794 20.0901C12.2554 18.8021 11.4748 16.2107 11.4748 16.2107C9.98388 17.0021 6.5415 20.222 6.5415 20.222C8.43052 16.459 10.3507 14.7521 10.3507 14.7521C9.68725 14.0849 7.96217 13.759 6.69762 13.6969C7.35331 13.4332 9.03937 13.1151 10.3351 13.0607C11.6309 13.0219 12.4193 13.0995 12.4193 13.0995C13.5746 12.184 15.3309 11.4159 15.9397 11.3306Z" fill="white"/>
    <path d="M19.53 27.4608C18.9289 28.2677 18.4137 28.9039 17.758 29.641C16.6184 29.9591 15.7051 30.0755 14.5967 30.0755C15.2758 30.4246 15.9393 30.6341 16.6496 30.7815C15.9393 31.4255 15.3382 31.8755 14.6435 32.3177C15.7988 32.0462 17.3287 31.5574 18.4606 30.8901C19.0538 30.9134 19.608 30.8746 20.0139 30.797C19.9046 30.4556 19.8422 30.1996 19.7563 29.7574C20.8257 28.9349 21.5985 28.1901 22.4884 27.2979C21.5439 27.9496 20.7243 28.4461 19.6314 28.9582C19.5846 28.4461 19.5534 28.0272 19.53 27.4608Z" fill="white"/>
    <path d="M0.351074 37.0119H37.4132V0.173828H0.351074V37.0119ZM36.6092 36.2128H1.14727V0.965211H36.6092V36.2128Z" fill="white"/>
    <path d="M4.5038 49.2472C4.41013 48.4558 4.21498 47.6877 3.06752 47.6877C2.35719 47.6877 1.74834 48.0291 1.74834 48.8205C1.74834 50.6826 5.9869 50.6748 5.9869 53.3516C5.9869 55.0585 4.80042 55.912 3.06752 55.912C1.84201 55.912 0.756995 55.3766 0.0856934 54.6007L0.796024 53.5223C1.38927 54.205 2.28694 54.6007 3.12997 54.6007C3.94958 54.6007 4.51941 54.2826 4.51941 53.5068C4.51941 51.8386 0.296451 51.7611 0.296451 48.9291C0.296451 47.1989 1.60783 46.3843 3.08313 46.3843C5.20632 46.3843 5.81518 47.8429 5.89323 49.0378L4.5038 49.2472Z" fill="white"/>
    <path d="M8.72699 52.6302C8.78944 54.244 9.45293 54.7095 10.4443 54.7095C11.2092 54.7095 11.8805 54.3294 12.2786 54.0268L12.505 55.144C11.8727 55.5397 11.2092 55.9044 10.1555 55.9044C8.41476 55.9044 7.22827 54.8647 7.22827 52.2578C7.22827 49.6742 8.27425 48.5957 10.0696 48.5957C11.8884 48.5957 12.6065 49.775 12.6065 51.5207V52.638H8.72699V52.6302ZM11.2092 51.5207C11.2092 50.3414 10.8658 49.7905 10.0306 49.7905C9.17192 49.7905 8.80505 50.3026 8.7348 51.5207H11.2092Z" fill="white"/>
    <path d="M19.6394 50.0465L18.6793 49.9922C18.9291 50.3181 19.0228 50.7138 19.0228 51.2646C19.0228 52.8396 17.9924 53.9181 16.4625 53.9181C16.158 53.9181 16.0097 53.9026 15.7755 53.8405C15.5101 54.0267 15.3384 54.1431 15.3384 54.3758C15.3384 55.1129 19.5926 54.2439 19.5926 56.75C19.5926 58.2629 17.9924 59 16.2673 59C14.5266 59 13.3792 58.3715 13.3792 57.2543C13.3792 56.5172 13.8553 55.9896 14.5812 55.6017C14.2612 55.431 13.988 55.1672 13.988 54.6164C13.988 54.0655 14.3861 53.7008 14.831 53.3827C14.2378 52.9327 13.8787 52.2112 13.8787 51.2413C13.8787 49.6275 14.9091 48.5879 16.4781 48.5879C16.8449 48.5879 17.1884 48.65 17.485 48.7586H19.6472V50.0465H19.6394ZM14.7296 57.0991C14.7296 57.7276 15.4789 57.8828 16.2985 57.8828C17.2118 57.8828 18.1641 57.5259 18.1641 56.9207C18.1641 56.0672 16.9776 56.0827 15.8926 55.9353C15.3228 56.2069 14.7296 56.6026 14.7296 57.0991ZM16.4625 49.7439C15.6975 49.7439 15.2213 50.1784 15.2213 51.2491C15.2213 52.3276 15.6975 52.762 16.4625 52.762C17.2274 52.762 17.7036 52.3276 17.7036 51.2491C17.7036 50.1784 17.2274 49.7439 16.4625 49.7439Z" fill="white"/>
    <path d="M22.0361 48.7588V53.5381C22.0361 54.4304 22.5903 54.7097 23.2226 54.7097C23.8549 54.7097 24.4091 54.4381 24.4091 53.5381V48.7588H25.8454V53.4993C25.8454 55.1286 24.7369 55.9045 23.2148 55.9045C21.6927 55.9045 20.592 55.1286 20.592 53.4993V48.7588H22.0361Z" fill="white"/>
    <path d="M29.0458 48.7586V49.4413C29.6234 48.8284 30.2088 48.5879 30.8255 48.5879C31.8715 48.5879 32.0666 49.5344 32.0666 50.5586L30.8411 50.706C30.8255 50.287 30.7865 50 30.3884 50C30.0059 50 29.6 50.3181 29.1863 50.737V55.7414H27.75V48.7663H29.0458V48.7586Z" fill="white"/>
    <path d="M38.3732 52.2811C38.3732 54.6941 37.3741 55.9044 35.4851 55.9044C33.6351 55.9044 32.5813 54.857 32.5813 52.2579C32.5813 49.6975 33.5961 48.5957 35.4851 48.5957C37.4521 48.588 38.3732 49.6432 38.3732 52.2811ZM34.0566 52.2501C34.0566 54.1432 34.5328 54.7096 35.4851 54.7096C36.4374 54.7096 36.8979 54.1432 36.8979 52.2811C36.8979 50.3415 36.4374 49.7828 35.4851 49.7828C34.5328 49.7828 34.0566 50.3337 34.0566 52.2501Z" fill="white"/>
    <path d="M43.0103 50.8612C42.9557 50.2405 42.6825 49.7828 41.9253 49.7828C41.3711 49.7828 40.9496 50.0155 40.9496 50.5431C40.9496 51.8699 44.228 51.7535 44.228 53.8639C44.228 55.1208 43.3303 55.8966 41.8238 55.8966C40.731 55.8966 39.8724 55.4777 39.3572 54.9811L39.8333 53.9337C40.3251 54.407 41.051 54.7096 41.7848 54.7096C42.339 54.7096 42.7996 54.5001 42.7996 53.9492C42.7996 52.8475 39.5679 52.863 39.5679 50.644C39.5679 49.4104 40.45 48.5957 41.9175 48.5957C43.5411 48.5957 44.2124 49.5267 44.2124 50.6595L43.0103 50.8612Z" fill="white"/>
    <path d="M50.8474 55.5784V58.4414L49.4111 58.7517V48.7586H50.7069V49.387C51.2377 48.9525 51.8934 48.5879 52.7676 48.5879C53.9541 48.5879 55.1016 49.2939 55.1016 52.1724C55.1016 54.8801 53.8605 55.9043 52.2368 55.9043C51.7997 55.9043 51.2845 55.7724 50.8474 55.5784ZM50.8474 54.3138C51.2533 54.5776 51.6748 54.7095 52.0885 54.7095C52.9159 54.7095 53.5794 54.0655 53.5794 52.1724C53.5794 50.3181 52.9316 49.8758 52.2603 49.8758C51.6904 49.8758 51.3079 50.0698 50.8474 50.3646V54.3138Z" fill="white"/>
    <path d="M59.9095 50.7061C59.9095 50.0466 59.4723 49.7905 58.8791 49.7905C58.2624 49.7905 57.7394 50.1474 57.7394 50.869L56.4749 50.7371C56.5139 49.3173 57.6536 48.5957 58.9727 48.5957C60.4246 48.5957 61.3457 49.3328 61.3457 50.5819V54.2207C61.3457 54.5466 61.5018 54.694 61.7282 54.694C61.9546 54.694 62.1888 54.5854 62.4151 54.4147L62.5088 55.4544C62.2434 55.7337 61.7672 55.9121 61.2911 55.9121C60.7915 55.9121 60.1827 55.7026 60.1202 54.9423C59.5894 55.6018 58.8401 55.9121 58.0985 55.9121C56.9979 55.9121 56.2251 55.2837 56.2251 54.019C56.2251 52.2345 57.9424 51.4974 59.9095 51.513V50.7061ZM59.9095 52.5837C58.6839 52.5449 57.6536 52.9949 57.6536 53.8871C57.6536 54.4225 57.8877 54.7173 58.442 54.7173C58.9806 54.7173 59.5114 54.3759 59.9095 53.9414V52.5837Z" fill="white"/>
    <path d="M64.7648 48.7586V49.4413C65.3424 48.8284 65.9278 48.5879 66.5445 48.5879C67.5905 48.5879 67.7856 49.5344 67.7856 50.5586L66.5601 50.706C66.5445 50.287 66.5055 50 66.1152 50C65.7327 50 65.319 50.3181 64.9131 50.737V55.7414H63.4768V48.7663H64.7648V48.7586Z" fill="white"/>
    <path d="M72.1182 50.7061C72.1182 50.0466 71.6811 49.7905 71.0878 49.7905C70.4712 49.7905 69.9482 50.1474 69.9482 50.869L68.6836 50.7371C68.7227 49.3173 69.8623 48.5957 71.1815 48.5957C72.6334 48.5957 73.5623 49.3328 73.5623 50.5819V54.2207C73.5623 54.5466 73.7184 54.694 73.9448 54.694C74.1711 54.694 74.4053 54.5854 74.6317 54.4147L74.7253 55.4544C74.46 55.7337 73.9838 55.9121 73.5076 55.9121C73.0081 55.9121 72.3992 55.7026 72.3368 54.9423C71.806 55.6018 71.0566 55.9121 70.3151 55.9121C69.2144 55.9121 68.4417 55.2837 68.4417 54.019C68.4417 52.2345 70.1589 51.4974 72.126 51.513V50.7061H72.1182ZM72.1182 52.5837C70.8927 52.5449 69.8623 52.9949 69.8623 53.8871C69.8623 54.4225 70.0965 54.7173 70.6507 54.7173C71.1893 54.7173 71.7201 54.3759 72.1182 53.9414V52.5837Z" fill="white"/>
    <path d="M80.4861 48.7588V53.5381C80.4861 54.4304 81.0403 54.7097 81.6726 54.7097C82.3048 54.7097 82.859 54.4381 82.859 53.5381V48.7588H84.2953V53.4993C84.2953 55.1286 83.1869 55.9045 81.6647 55.9045C80.1426 55.9045 79.042 55.1286 79.042 53.4993V48.7588H80.4861Z" fill="white"/>
    <path d="M87.4955 49.387C88.0497 48.9836 88.7366 48.5879 89.6733 48.5879C90.9379 48.5879 91.7341 49.2862 91.7341 50.8069V55.7336H90.2978V51.1017C90.2978 50.2482 90.009 49.9457 89.205 49.9457C88.6742 49.9457 88.0965 50.1707 87.6438 50.4577V55.7336H86.2075V48.7586H87.5033V49.387H87.4955Z" fill="white"/>
    <path d="M98.4865 49.387C99.0173 48.9836 99.7276 48.5879 100.602 48.5879C101.39 48.5879 101.882 48.8362 102.241 49.4026C102.951 48.9448 103.638 48.5879 104.489 48.5879C105.746 48.5879 106.456 49.2862 106.456 50.8069V55.7336H105.02V51.0552C105.02 50.1862 104.676 49.9379 103.966 49.9379C103.49 49.9379 102.936 50.1862 102.514 50.45C102.538 50.6207 102.553 50.8146 102.553 51.0164V55.7259H101.117V51.2491C101.117 50.2638 100.93 49.9379 100.063 49.9379C99.5715 49.9379 99.0875 50.1707 98.6504 50.45V55.7259H97.2141V48.7508H98.5099V49.387H98.4865Z" fill="white"/>
    <path d="M109.625 48.7588V53.5381C109.625 54.4304 110.179 54.7097 110.812 54.7097C111.444 54.7097 111.998 54.4381 111.998 53.5381V48.7588H113.442V53.4993C113.442 55.1286 112.334 55.9045 110.812 55.9045C109.297 55.9045 108.181 55.1286 108.181 53.4993V48.7588H109.625Z" fill="white"/>
    <path d="M116.634 49.387C117.189 48.9836 117.876 48.5879 118.812 48.5879C120.077 48.5879 120.873 49.2862 120.873 50.8069V55.7336H119.437V51.1017C119.437 50.2482 119.148 49.9457 118.344 49.9457C117.813 49.9457 117.235 50.1707 116.791 50.4577V55.7336H115.354V48.7586H116.65V49.387H116.634Z" fill="white"/>
    <path d="M126.735 54.9032C126.22 55.4774 125.572 55.9041 124.714 55.9041C123.582 55.9041 122.31 55.0351 122.31 52.2653C122.31 49.573 123.512 48.5877 124.807 48.5877C125.401 48.5877 125.9 48.7351 126.509 49.0221V46.1437L127.945 45.8799V54.2049C127.945 54.5308 128.102 54.6782 128.328 54.6782C128.554 54.6782 128.788 54.5696 129.015 54.3989L129.108 55.4386C128.843 55.7179 128.367 55.8963 127.891 55.8963C127.344 55.9041 126.798 55.6636 126.735 54.9032ZM126.509 50.1782C126.088 49.9687 125.705 49.7825 125.112 49.7825C124.448 49.7825 123.816 50.217 123.816 52.1954C123.816 53.9023 124.394 54.5851 125.034 54.5851C125.682 54.5851 126.166 54.1894 126.509 53.7937V50.1782Z" fill="white"/>
    <path d="M135.501 52.2811C135.501 54.6941 134.494 55.9044 132.605 55.9044C130.755 55.9044 129.701 54.857 129.701 52.2579C129.701 49.6975 130.716 48.5957 132.605 48.5957C134.572 48.588 135.501 49.6432 135.501 52.2811ZM131.185 52.2501C131.185 54.1432 131.661 54.7096 132.613 54.7096C133.565 54.7096 134.026 54.1432 134.026 52.2811C134.026 50.3415 133.565 49.7828 132.613 49.7828C131.661 49.7828 131.185 50.3337 131.185 52.2501Z" fill="white"/>
    <path d="M141.653 52.6302C141.723 54.244 142.378 54.7095 143.37 54.7095C144.135 54.7095 144.806 54.3294 145.204 54.0268L145.431 55.144C144.798 55.5397 144.135 55.9044 143.081 55.9044C141.34 55.9044 140.154 54.8647 140.154 52.2578C140.154 49.6742 141.2 48.5957 142.995 48.5957C144.814 48.5957 145.532 49.775 145.532 51.5207V52.638H141.653V52.6302ZM144.135 51.5207C144.135 50.3414 143.791 49.7905 142.956 49.7905C142.097 49.7905 141.731 50.3026 141.66 51.5207H144.135Z" fill="white"/>
    <path d="M148.397 49.387C148.951 48.9836 149.638 48.5879 150.575 48.5879C151.839 48.5879 152.635 49.2862 152.635 50.8069V55.7336H151.199V51.1017C151.199 50.2482 150.91 49.9457 150.106 49.9457C149.576 49.9457 148.998 50.1707 148.545 50.4577V55.7336H147.109V48.7586H148.405V49.387H148.397Z" fill="white"/>
    <path d="M159.114 52.6302C159.185 54.244 159.84 54.7095 160.832 54.7095C161.597 54.7095 162.268 54.3294 162.666 54.0268L162.892 55.144C162.26 55.5397 161.597 55.9044 160.543 55.9044C158.802 55.9044 157.616 54.8647 157.616 52.2578C157.616 49.6742 158.662 48.5957 160.457 48.5957C162.276 48.5957 162.994 49.775 162.994 51.5207V52.638H159.114V52.6302ZM161.597 51.5207C161.597 50.3414 161.253 49.7905 160.418 49.7905C159.559 49.7905 159.192 50.3026 159.122 51.5207H161.597Z" fill="white"/>
    <path d="M165.14 48.7588L166.897 54.1588L168.567 48.7588H170.011L167.669 55.7338H165.999L163.603 48.7588H165.14Z" fill="white"/>
    <path d="M176.427 52.2811C176.427 54.6941 175.428 55.9044 173.539 55.9044C171.689 55.9044 170.635 54.857 170.635 52.2579C170.635 49.6975 171.65 48.5957 173.539 48.5957C175.499 48.588 176.427 49.6432 176.427 52.2811ZM172.111 52.2501C172.111 54.1432 172.587 54.7096 173.539 54.7096C174.492 54.7096 174.952 54.1432 174.952 52.2811C174.952 50.3415 174.492 49.7828 173.539 49.7828C172.587 49.7828 172.111 50.3337 172.111 52.2501Z" fill="white"/>
    <path d="M179.433 45.8877V54.1351C179.433 54.5153 179.643 54.6627 179.924 54.6627C180.229 54.6627 180.502 54.5464 180.783 54.3834L180.924 55.4851C180.385 55.7722 179.963 55.9041 179.456 55.9041C178.285 55.9041 177.989 55.0507 177.989 54.1351V46.1515L179.433 45.8877Z" fill="white"/>
    <path d="M183.156 48.7588V53.5381C183.156 54.4304 183.711 54.7097 184.343 54.7097C184.975 54.7097 185.529 54.4381 185.529 53.5381V48.7588H186.966V53.4993C186.966 55.1286 185.857 55.9045 184.343 55.9045C182.821 55.9045 181.712 55.1286 181.712 53.4993V48.7588H183.156Z" fill="white"/>
    <path d="M192.296 51.1094C192.257 50.4266 191.961 49.7827 191.172 49.7827C190.298 49.7827 189.9 50.2792 189.9 52.2499C189.9 54.2206 190.493 54.7017 191.539 54.7017C192.375 54.7017 192.913 54.3448 193.311 54.0732L193.584 55.1362C192.991 55.5474 192.265 55.8965 191.251 55.8965C189.424 55.8965 188.401 54.756 188.401 52.2344C188.401 49.8059 189.283 48.5801 191.227 48.5801C192.921 48.5801 193.561 49.6197 193.592 50.9698C193.155 51.0163 192.726 51.0551 192.296 51.1094Z" fill="white"/>
    <path d="M196.582 47.8276H195.146V46.2759H196.582V47.8276ZM196.582 55.7337H195.146V48.7586H196.582V55.7337Z" fill="white"/>
    <path d="M203.966 52.2808C203.966 54.6938 202.959 55.9041 201.07 55.9041C199.22 55.9041 198.166 54.8567 198.166 52.2575C198.166 49.6972 199.181 48.5955 201.07 48.5955C203.037 48.5877 203.966 49.6429 203.966 52.2808ZM199.649 52.2498C199.649 54.1429 200.126 54.7093 201.078 54.7093C202.03 54.7093 202.491 54.1429 202.491 52.2808C202.491 50.3412 202.03 49.7825 201.078 49.7825C200.126 49.7825 199.649 50.3334 199.649 52.2498ZM203.146 45.8877L201.616 47.9593H200.391L201.687 45.8877H203.146Z" fill="white"/>
    <path d="M206.847 49.387C207.401 48.9836 208.088 48.5879 209.025 48.5879C210.289 48.5879 211.086 49.2862 211.086 50.8069V55.7336H209.649V51.1017C209.649 50.2482 209.361 49.9457 208.549 49.9457C208.018 49.9457 207.44 50.1707 206.995 50.4577V55.7336H205.551V48.7586H206.847V49.387Z" fill="white"/>
    <path d="M46.6867 5.25592C46.7804 6.54386 46.8507 9.75594 46.8507 10.9353C46.8507 12.0137 46.8429 15.6292 46.6711 17.1965L46.6555 17.3206H52.346C55.1248 17.3206 58.0911 16.4439 58.0911 13.9766C58.0911 12.4327 56.967 11.2844 54.8595 10.6559C56.405 10.2447 57.451 9.1818 57.451 7.94817C57.451 5.93868 55.1248 5.17058 52.9548 5.12402C52.947 5.12402 46.6789 5.12402 46.6789 5.12402L46.6867 5.25592ZM51.0814 6.4973C53.4544 6.50506 54.3365 6.99386 54.3365 8.28179C54.3365 8.63093 54.2272 8.92576 54.0164 9.1818C53.5637 9.7249 52.6582 10.0042 51.5342 9.9499H51.4795L50.8238 11.6646H51.4873C52.7987 11.6258 53.9384 12.037 54.516 12.7508C54.7892 13.0766 54.9219 13.4491 54.9219 13.8525C54.9219 15.2103 53.7276 15.9008 51.3937 15.9008C51.0034 15.9008 50.3633 15.9008 49.9574 15.8698C49.8715 14.0853 49.8715 11.6568 49.8715 10.943C49.8715 10.0896 49.9106 8.19645 49.9652 6.57489C50.2228 6.52834 50.6755 6.48955 51.0814 6.4973Z" fill="white"/>
    <path d="M71.1966 5.13916H68.4412L68.5582 8.20384C68.6051 9.7323 68.6597 11.2918 68.7612 12.8047C68.5739 12.347 68.4177 12.0909 67.5981 10.8806C67.5747 10.8418 64.7022 6.41934 63.7108 5.17795L63.6718 5.13916H60.448L60.4558 5.25554C60.5495 6.53572 60.6197 9.74782 60.6197 10.9349C60.6197 12.0134 60.6041 15.6367 60.4402 17.2039L60.4246 17.3358H63.2815L63.2737 17.2117C63.1098 14.2246 63.1098 11.2297 63.1098 8.32798V8.32022C63.2034 8.66936 63.3439 8.98747 63.7967 9.65471C63.8435 9.7323 68.7534 16.8703 69.0032 17.2893L69.0266 17.3436H71.3215L71.3059 17.2117C71.1342 15.6444 71.1264 12.0211 71.1264 10.9427C71.1264 9.75558 71.1966 6.54348 71.2903 5.2633L71.2981 5.14692H71.1966V5.13916Z" fill="white"/>
    <path d="M74.5222 5.25592C74.6159 6.54386 74.6861 9.75594 74.6861 10.9353C74.6861 12.0137 74.6705 15.637 74.5066 17.1965L74.4988 17.3206H77.9021L77.8865 17.1965C77.7694 16.0792 77.7304 13.9378 77.7148 12.2853C77.8553 12.293 78.3393 12.3163 78.3393 12.3163L78.8154 12.3396C83.3038 12.3396 85.4816 11.1447 85.4816 8.66973C85.4816 5.84558 82.4217 5.18609 79.8614 5.13178L74.5144 5.12402L74.5222 5.25592ZM78.6983 6.60593C80.2907 6.57489 81.4148 6.90851 81.9534 7.568C82.1953 7.87058 82.3202 8.243 82.3202 8.67748C82.3202 10.4387 80.3376 10.8111 78.6749 10.8111L78.0036 10.7878C78.0036 10.7878 77.8397 10.7646 77.7304 10.749C77.7226 10.3456 77.7148 9.81801 77.7148 9.20507C77.7148 8.42921 77.7226 7.53696 77.7538 6.69127C77.9568 6.64472 78.3314 6.61368 78.6983 6.60593Z" fill="white"/>
    <path d="M91.9841 5.25592C92.0778 6.54386 92.148 9.75594 92.148 10.9353C92.148 12.0137 92.1324 15.637 91.9685 17.1965L91.9529 17.3206H95.364L95.3484 17.1965C95.2313 16.0792 95.1923 13.9378 95.1767 12.2853C95.3172 12.293 95.8012 12.3163 95.8012 12.3163L96.2851 12.3396C100.773 12.3396 102.959 11.1447 102.959 8.66973C102.959 5.84558 99.8992 5.18609 97.3311 5.13178L91.9919 5.12402L91.9841 5.25592ZM96.1602 6.60593C97.7526 6.57489 98.8767 6.90851 99.4153 7.568C99.6572 7.87058 99.7821 8.243 99.7821 8.67748C99.7821 10.4387 97.7995 10.8111 96.129 10.8111L95.4577 10.7878C95.4577 10.7878 95.2938 10.7646 95.1923 10.749C95.1767 10.3456 95.1689 9.81025 95.1689 9.19731C95.1689 8.42145 95.1845 7.5292 95.2157 6.68351C95.4265 6.64472 95.7933 6.61368 96.1602 6.60593Z" fill="white"/>
    <path d="M107.51 5.13916H107.447L107.424 5.20123C106.792 6.93141 102.717 15.7996 102.077 17.1573L101.999 17.3203H104.918L104.942 17.2505C105.199 16.4203 105.527 15.4737 105.91 14.4496C106.019 14.4496 108.322 14.4108 108.322 14.4108L110.312 14.4341C110.312 14.4341 110.663 14.4496 110.749 14.4496C111.28 15.7608 111.663 16.7617 111.842 17.2505L111.866 17.3203H115.246L109.797 5.13916H109.742H107.51ZM108.337 8.73143C108.611 9.29781 109.305 10.9349 110.094 12.859C109.977 12.859 109.836 12.8668 109.836 12.8668L108.337 12.8823C108.337 12.8823 106.784 12.859 106.542 12.8513C107.182 11.3151 107.799 9.9185 108.337 8.73143Z" fill="white"/>
    <path d="M116.595 5.25559C116.681 6.53577 116.759 9.7556 116.759 10.9349C116.759 12.0134 116.744 15.6367 116.572 17.1961L116.556 17.328H119.968L119.952 17.1961C119.78 15.6289 119.772 12.0056 119.772 10.9272C119.772 10.0815 119.811 8.1806 119.874 6.66767C120.155 6.62887 120.53 6.59784 120.787 6.59008C122.38 6.55905 123.504 6.89267 124.042 7.55215C124.284 7.84698 124.417 8.21939 124.417 8.66164C124.417 10.0659 123.082 10.7797 121.849 10.8496C121.443 10.8651 121.131 10.8108 121.123 10.8108L120.889 10.772L121.037 10.9892C122.231 12.7504 124.042 15.8151 124.807 17.2737L124.838 17.328H128.492L128.382 17.1496C128.257 16.9479 125.861 13.4565 124.846 11.9668C124.846 11.9668 124.807 11.9203 124.784 11.8815C126.642 11.3228 127.555 10.2754 127.555 8.67715C127.555 5.85301 124.495 5.20128 121.927 5.14697H116.58L116.595 5.25559Z" fill="white"/>
    <path d="M133.331 5.13135H130.061L130.076 5.24773C130.17 6.53566 130.24 9.7555 130.24 10.9348C130.24 12.0055 130.224 15.6288 130.061 17.1961L130.053 17.3202H133.456L133.44 17.1961C133.277 15.6288 133.261 12.0055 133.261 10.9348C133.261 9.7555 133.331 6.53566 133.425 5.24773L133.433 5.13135H133.331Z" fill="white"/>
    <path d="M136.516 5.25592C136.61 6.5361 136.68 9.75594 136.68 10.9353C136.68 12.0137 136.672 15.6292 136.5 17.1965L136.485 17.3206H142.175C144.954 17.3206 147.92 16.4439 147.92 13.9766C147.92 12.4327 146.796 11.2844 144.689 10.6559C146.234 10.2447 147.288 9.1818 147.288 7.94817C147.288 5.93868 144.97 5.17058 142.792 5.12402H136.516V5.25592ZM140.911 6.4973C143.284 6.50506 144.166 6.99386 144.166 8.28179C144.166 8.63093 144.057 8.92576 143.846 9.1818C143.393 9.7249 142.488 10.0042 141.364 9.9499H141.301L140.653 11.6646H141.317C142.628 11.6258 143.752 12.037 144.338 12.7508C144.611 13.0766 144.743 13.4491 144.743 13.8525C144.743 15.2103 143.557 15.9008 141.223 15.9008C140.825 15.9008 140.185 15.9008 139.779 15.8698C139.693 14.0853 139.693 11.6568 139.693 10.943C139.693 10.0896 139.732 8.18869 139.795 6.57489C140.052 6.52834 140.505 6.48955 140.911 6.4973Z" fill="white"/>
    <path d="M156.296 5.13135H154.001L153.978 5.20118C153.306 7.03998 148.99 16.3892 148.631 17.1573L148.553 17.3202H151.48L151.496 17.2504C151.745 16.4202 152.081 15.4736 152.463 14.4572C152.565 14.4495 154.875 14.4185 154.875 14.4185L156.866 14.4495C156.866 14.4495 157.209 14.4572 157.303 14.4572C157.834 15.7685 158.216 16.7616 158.388 17.2581L158.411 17.3202H161.791L156.351 5.13135H156.296ZM154.891 8.7236C155.164 9.29774 155.859 10.9271 156.647 12.8512C156.53 12.8512 156.39 12.8667 156.39 12.8667L154.883 12.89C154.883 12.89 153.338 12.859 153.096 12.8512C153.728 11.2917 154.352 9.91068 154.891 8.7236Z" fill="white"/>
    <path d="M162.744 8.29735C162.744 10.4388 164.914 11.3077 166.818 12.0836C168.309 12.681 169.839 13.3017 169.839 14.3181C169.839 14.6284 169.769 14.8767 169.605 15.0707C169.254 15.4897 168.52 15.6681 167.373 15.6138C166.248 15.5595 164.961 15.1948 163.54 14.5353L162.939 14.2638L162.947 14.7371V16.925L163.329 17.0104L163.563 17.0569C164.281 17.2276 165.64 17.5457 167.013 17.5457C170.604 17.5457 172.751 16.1259 172.751 13.7595C172.751 11.5638 170.534 10.687 168.582 9.91116C167.138 9.33702 165.647 8.74736 165.647 7.80856C165.647 7.537 165.647 6.72234 167.49 6.72234C168.871 6.72234 170.222 7.28096 170.955 7.58355L171.658 7.87063L171.65 7.41286V5.18612L170.955 5.06198C170.261 4.93008 169.105 4.70508 167.903 4.70508C164.82 4.71284 162.744 6.1482 162.744 8.29735Z" fill="white"/>
    <path d="M55.2108 23.7059C54.6176 23.3567 53.8917 23.0696 52.9471 23.0696C50.1839 23.0696 49.2316 25.2421 49.2316 27.0964C49.2316 29.6723 50.824 30.9758 52.9628 30.9758C54.2976 30.9758 55.2967 30.3551 56.1944 29.5714L56.21 31.8059C55.2967 32.1706 54.1805 32.4887 52.4944 32.4887C48.6383 32.4887 46.2263 30.1068 46.2263 27.0731C46.2263 23.8765 48.7788 21.5645 52.9784 21.5645C53.9619 21.5645 54.922 21.7196 55.8431 21.9446L55.2108 23.7059Z" fill="white"/>
    <path d="M64.523 21.7432C64.9289 22.8294 68.4181 30.5493 69.2377 32.3027H66.3105C66.1466 31.8217 65.7954 30.945 65.3426 29.8122C64.7338 29.7967 64.1171 29.7812 63.2507 29.7812C62.4467 29.7812 61.8378 29.7967 61.1431 29.8122C60.8074 30.7044 60.5342 31.5191 60.2923 32.3027H57.7397C58.3486 30.9915 61.9159 23.3027 62.4779 21.7432H64.523ZM64.7806 28.4234L63.2663 24.8466C62.7823 25.8708 62.2515 27.0734 61.6895 28.4234C62.1422 28.4389 62.7667 28.4544 63.2663 28.4544C63.7502 28.4544 64.2654 28.4389 64.7806 28.4234Z" fill="white"/>
    <path d="M75.7248 21.7432C77.9573 21.7432 80.6112 22.3639 80.6112 24.8078C80.6112 26.1811 79.8072 27.0967 78.2148 27.5855C78.4412 28.0355 81.0093 31.9148 81.4308 32.3027H78.2617C77.567 30.9915 75.9824 28.338 74.8349 26.6156C75.0301 26.6622 75.3189 26.6932 75.6545 26.6932C76.5834 26.6932 77.887 26.026 77.887 24.8078C77.887 23.2871 76.037 23.0156 75.1081 23.0156C74.6398 23.0156 74.187 23.0466 73.9529 23.0777C73.8904 24.3889 73.8592 26.0337 73.8592 26.7708C73.8592 27.7096 73.8592 30.8286 74.0231 32.3027H71.0647C71.213 30.8441 71.2442 28.9587 71.2442 26.7708C71.2442 24.932 71.2286 22.7285 71.0959 21.7509H75.7248V21.7432Z" fill="white"/>
    <path d="M87.5189 21.7432C91.9917 21.7432 93.709 24.0785 93.709 27.0035C93.709 30.0217 92.0385 32.295 87.355 32.295H83.4131C83.5614 30.8751 83.5614 28.9354 83.5614 26.7785C83.5614 25.7544 83.5614 23.1164 83.4131 21.7432H87.5189ZM86.27 23.0699C86.2076 23.7604 86.192 25.5604 86.192 26.7785C86.192 28.3148 86.192 29.5251 86.2544 30.9527C86.4105 30.9682 86.6525 30.9993 87.0116 30.9993C89.5797 30.9993 90.9145 30.2001 90.9145 26.957C90.9145 23.8613 89.5485 22.9923 86.9569 23.0466L86.27 23.0699Z" fill="white"/>
    <path d="M99.1577 21.7432C99.064 22.9613 99.0015 25.7389 99.0015 26.7785C99.0015 27.7018 99.0171 30.8363 99.1577 32.295H96.2148C96.371 30.8363 96.3788 27.6941 96.3788 26.7785C96.3788 25.7544 96.3163 22.9613 96.2461 21.7432H99.1577Z" fill="white"/>
    <path d="M110.421 21.7432V23.2716C109.586 23.2251 107.51 23.163 106.807 23.163C106.292 23.163 105.715 23.163 105.121 23.2096C105.075 23.8613 105.059 24.6759 105.059 25.382C105.059 25.7311 105.059 26.0492 105.074 26.2975L108.774 26.2354V27.8803L105.074 27.7329C105.09 29.0751 105.106 31.1544 105.238 32.3027H102.264C102.444 30.8441 102.444 27.7018 102.444 26.7863C102.444 25.7622 102.366 22.969 102.272 21.7509H110.421V21.7432Z" fill="white"/>
</svg>
