<svg width="56" height="57" fill="none" xmlns="http://www.w3.org/2000/svg"><path d="M35.544 36.485v2.606c0 .525-.177.97-.53 1.333a1.777 1.777 0 01-1.238.485H22.342c-.471 0-.884-.161-1.238-.485a1.84 1.84 0 01-.53-1.333v-2.606c0-1.616.55-2.97 1.65-4.06 1.1-1.092 2.417-1.637 3.949-1.637h3.83c1.533 0 2.83.566 3.89 1.697 1.1 1.09 1.65 2.424 1.65 4zM23.816 34.06a3.89 3.89 0 00-.767 1.151 3.48 3.48 0 00-.235 1.273v2.121h10.431v-2.121a2.88 2.88 0 00-.294-1.273 3.122 3.122 0 00-.708-1.151 3.014 3.014 0 00-1.12-.728 3.079 3.079 0 00-1.178-.242h-3.772c-.432 0-.845.08-1.238.242a3.813 3.813 0 00-1.12.728zm7.72-5.091l.06.06c-.983.97-2.162 1.455-3.537 1.455s-2.554-.505-3.536-1.515c-.943-1.01-1.415-2.202-1.415-3.576 0-1.414.472-2.606 1.415-3.576.982-1.01 2.16-1.515 3.536-1.515 1.375 0 2.534.485 3.477 1.455.983.97 1.474 2.181 1.474 3.636 0 1.414-.491 2.606-1.474 3.576zm-6.13-3.576l-.058-.06c0 .767.255 1.434.766 2 .55.525 1.179.787 1.886.787.747 0 1.375-.262 1.886-.788.55-.565.825-1.212.825-1.94 0-.767-.255-1.413-.766-1.939-.51-.565-1.14-.848-1.886-.848-.707 0-1.336.283-1.886.848-.51.526-.766 1.172-.766 1.94zm12.024 7.212c-1.022 0-1.906-.364-2.652-1.09-.707-.728-1.061-1.617-1.061-2.667 0-1.051.354-1.94 1.06-2.667.747-.727 1.631-1.091 2.653-1.091s1.886.363 2.593 1.09c.707.728 1.061 1.617 1.061 2.668 0 1.05-.354 1.939-1.06 2.666-.708.727-1.572 1.091-2.594 1.091zm-1.591-3.758c0 .445.157.829.471 1.152a1.51 1.51 0 001.12.485A1.33 1.33 0 0038.49 30c.315-.323.472-.707.472-1.151 0-.445-.157-.829-.471-1.152a1.33 1.33 0 00-1.061-.485 1.51 1.51 0 00-1.12.485 1.595 1.595 0 00-.471 1.152zm2.24 4.364v-.06c1.178 0 2.18.424 3.005 1.272.825.849 1.238 1.9 1.238 3.152v1.879c0 .444-.158.828-.472 1.151-.275.283-.629.424-1.06.424h-5.187c-.157 0-.256-.06-.295-.181 0-.162.079-.263.236-.303.354-.122.609-.263.766-.425.275-.242.413-.565.413-.97v-.12c0-.162.078-.243.235-.243h3.183v-1.212c0-.243-.059-.505-.177-.788a2.3 2.3 0 00-.471-.727 1.598 1.598 0 00-.708-.425 1.65 1.65 0 00-.766-.181h-1.296c-.118 0-.197-.061-.236-.182a4.577 4.577 0 00-.707-1.697c-.04-.121-.04-.202 0-.243l.176-.12h2.122zM21.28 31.333a3.786 3.786 0 01-2.652 1.03c-1.021 0-1.886-.363-2.593-1.09-.707-.727-1.061-1.616-1.061-2.667 0-1.05.354-1.94 1.06-2.667.708-.727 1.573-1.09 2.594-1.09 1.022 0 1.886.363 2.593 1.09.747.728 1.12 1.617 1.12 2.667a3.89 3.89 0 01-1.06 2.727zm-4.184-2.727c0 .485.137.889.412 1.212a1.62 1.62 0 001.12.424c.471 0 .845-.161 1.12-.484.314-.324.471-.707.471-1.152a1.6 1.6 0 00-.471-1.152 1.51 1.51 0 00-1.12-.484c-.393 0-.747.161-1.06.485a1.596 1.596 0 00-.472 1.151zm2.652 11.333V40c.118.121.373.242.766.364.118.04.177.141.177.303 0 .04-.04.08-.118.12l-.118.062H15.27c-.433 0-.806-.142-1.12-.425a1.72 1.72 0 01-.413-1.151v-1.88c0-1.211.413-2.242 1.238-3.09.864-.848 1.866-1.273 3.006-1.273h2.121c.079 0 .138.04.177.121.079.04.079.122 0 .243a4.6 4.6 0 00-.707 1.636c0 .081-.04.142-.118.182l-.118.06H18.04c-.275 0-.55.061-.825.183a1.65 1.65 0 00-.649.424 1.676 1.676 0 00-.471.666 1.918 1.918 0 00-.177.849v1.212h3.183c.157 0 .235.08.235.242v.182c0 .364.138.667.413.91zm24.93-22.848c.275.404.373.869.295 1.394l-1.71 10.121c-.274 1.495-.726 3.03-1.355 4.606l-.118.06-.059.061-.118.06-.117-.06-.649-.424c-.118-.121-.137-.242-.059-.364 0-.04.02-.06.06-.06v-.06c.982-1.01 1.473-2.223 1.473-3.637 0-1.091-.275-2.04-.826-2.849l-.058-.181 1.237-7.455-14.616-4.97-14.793 4.546 1.12 7.879v.181a4.892 4.892 0 00-.767 2.667c0 1.455.472 2.667 1.415 3.636l.118.122c.04 0 .078.04.118.12.039.041.039.102 0 .183l-.06.12-1.001.607h-.177l-.118-.06v-.061c-.707-1.738-1.179-3.435-1.414-5.091L11.026 18c-.078-.525.02-.99.295-1.394a2.083 2.083 0 011.12-.909l15.029-4.606a.64.64 0 01.294-.06c.275-.041.491-.041.649 0l.294.06 14.911 5.03c.472.162.825.485 1.061.97zm-13.79 25.212h3.477c.118 0 .197.06.236.182.04.121 0 .202-.118.242l-.766.667c-1.807 1.131-3.615 1.96-5.422 2.485a.64.64 0 01-.295.06l-.295.061a.946.946 0 01-.294-.06l-.295-.061a20.565 20.565 0 01-5.304-2.667l-.53-.485c-.119-.04-.158-.12-.119-.242 0-.04.04-.081.118-.121l.118-.061 3.418.06c1.061.526 2.044.95 2.947 1.273a23.304 23.304 0 003.065-1.333h.059z" fill="#586264"/></svg>