<svg width="157" height="52" fill="none" xmlns="http://www.w3.org/2000/svg"><path d="M134.94 4.485h-.755a.256.256 0 00-.238.239v6.232c-.04 1.27-.755 2.024-1.789 2.024-.795 0-1.232-.238-1.828-.913a.53.53 0 01-.119-.159c-.08-.119-.12-.158-.199-.158-.08 0-.159 0-.199.04-.079.039-.397.317-.437.357-.08.04-.119.119-.119.238 0 .04.039.08.039.119.716.992 1.63 1.508 2.862 1.508.875 0 1.55-.278 2.107-.794.596-.595.874-1.429.874-2.5V4.683c.04-.12-.079-.199-.199-.199zm-8.068 6.074c-1.113-2.461-2.385-5.28-2.663-5.875-.04-.08-.119-.12-.239-.12h-.795a.217.217 0 00-.198.12c-.398.953-3.22 7.105-4.055 8.931-.039.04-.039.12 0 .199.04.04.08.08.159.08h.676c.119 0 .239-.08.318-.2l.954-2.103h5.048l.954 2.104c.04.119.159.198.318.198h.755c.079 0 .119-.04.159-.08.04-.039.04-.118 0-.198a62.12 62.12 0 00-1.391-3.056zm-1.232-.04h-4.134l2.067-4.605 2.067 4.605zm20.509 3.057c-.278-.636-.835-1.787-1.391-3.057-1.113-2.461-2.385-5.28-2.663-5.875-.04-.08-.119-.119-.239-.119h-.795a.217.217 0 00-.198.12c-.398.952-3.22 7.105-4.054 8.93-.04.04-.04.12 0 .199.039.04.079.08.159.08h.675c.119 0 .239-.08.318-.2l.954-2.103h5.048l.954 2.104c.04.119.159.198.318.198h.755c.08 0 .119-.04.159-.079v-.198zm-2.663-3.057h-4.134l2.067-4.605 2.067 4.605zm-25.875 1.747c-.04-.04-.08-.12-.119-.16-.08-.079-.159-.198-.159-.237a.192.192 0 00-.239-.08c-.04 0-.079.04-.119.08-.914.833-1.749 1.15-2.782 1.15-2.027 0-3.578-1.666-3.578-3.81v-.08c0-2.182 1.551-3.81 3.578-3.81.993 0 1.828.318 2.623 1.032l.04.04c.079.04.079.08.159.119.079.04.198 0 .238-.08.04-.04.398-.595.398-.595.039-.04.039-.119.039-.198 0-.04-.079-.12-.159-.199-.993-.833-1.987-1.19-3.338-1.19-2.703 0-4.81 2.183-4.81 4.921v.04c0 2.779 2.067 4.883 4.77 4.883 1.391 0 2.464-.437 3.537-1.39.04-.04.08-.08.08-.119.04-.08 0-.159-.04-.198l-.119-.12zm-2.623 17.862h-1.431c-.12 0-.279.08-.318.199-.477 1.15-2.902 6.47-3.697 8.296l-.199.437c-.039.079-.039.158.04.238.04.08.119.119.239.119h1.828c.119 0 .239-.08.318-.199l2.544-5.875 2.583 5.875c.04.12.159.199.318.199h1.789c.079 0 .159-.04.238-.12a.251.251 0 000-.237c-.715-1.509-3.338-7.543-3.855-8.773-.159-.08-.278-.159-.397-.159zm32.632 0h-6.32a.313.313 0 00-.318.318v8.733c0 .079.04.158.079.238.08.08.159.08.239.08h6.32a.314.314 0 00.318-.318v-1.23a.313.313 0 00-.318-.319h-4.531v-1.865h3.696a.313.313 0 00.318-.318v-1.23a.313.313 0 00-.318-.318h-3.696v-1.786h4.531a.314.314 0 00.318-.318v-1.23c0-.278-.159-.437-.318-.437zm5.962 3.692c-1.63-.397-2.027-.635-2.027-1.191v-.04c0-.436.437-.794 1.152-.794.676 0 1.391.239 2.266.834.04.04.079.04.119.04a.27.27 0 00.239-.16c.079-.078.357-.515.596-.872.079-.12.159-.239.199-.278.079-.12.198-.278 0-.397-.994-.754-2.107-1.112-3.379-1.112-1.987 0-3.378 1.191-3.378 2.938v.04c0 1.984 1.391 2.5 3.179 2.977 1.59.397 1.868.674 1.868 1.15v.04c0 .516-.477.834-1.311.834-.875 0-1.67-.318-2.544-.992-.199-.16-.358-.12-.477.04-.079.079-.358.476-.596.793l-.278.358c-.04.079-.04.119-.04.158 0 .04.119.159.278.318.04.04.119.08.159.119.994.714 2.186 1.072 3.498 1.072 2.186 0 3.537-1.151 3.537-3.017v-.04c.04-1.667-1.192-2.342-3.06-2.818zm-24.683-3.692h-1.431a.356.356 0 00-.358.357v5.24l-4.173-5.478a.362.362 0 00-.278-.119h-1.431a.313.313 0 00-.318.318v8.693c0 .198.159.317.318.317h1.431a.314.314 0 00.318-.317V33.7l4.332 5.636c.08.08.159.12.278.12h1.312a.313.313 0 00.318-.318v-8.693c.04-.159-.119-.318-.318-.318zm6.121 0h-3.339a.563.563 0 00-.238.08c-.08.079-.08.158-.08.238v8.613c0 .199.159.318.318.318h3.339c2.782 0 4.73-1.945 4.73-4.684v-.04c0-1.31-.437-2.46-1.272-3.334-.875-.754-2.067-1.19-3.458-1.19zm0 7.423h-1.51v-5.478h1.51c1.55 0 2.504 1.032 2.504 2.7v.04c-.04 1.746-.994 2.738-2.504 2.738zm-17.846-12.86h-4.373v-7.027a.356.356 0 00-.357-.357h-1.471a.356.356 0 00-.358.357v8.693c0 .199.159.358.358.358h6.161a.313.313 0 00.318-.318v-1.31c.04-.278-.119-.397-.278-.397zm6.16-7.662c-2.861 0-5.047 2.183-5.047 4.922v.04c0 2.778 2.186 4.882 5.047 4.882 2.862 0 5.048-2.183 5.048-4.922v-.04c.04-2.739-2.146-4.882-5.048-4.882zm-2.782 4.962c0-1.628 1.193-2.898 2.743-2.898 1.55 0 2.782 1.27 2.782 2.938v.04c0 1.627-1.193 2.897-2.743 2.897-1.59-.08-2.782-1.35-2.782-2.977zm13.276-.992c-1.63-.397-2.028-.636-2.028-1.191v-.04c0-.437.438-.794 1.153-.794.676 0 1.391.238 2.266.834.039.04.079.04.119.04.079 0 .159-.04.238-.16.08-.079.318-.436.517-.754.119-.158.199-.317.239-.357.079-.119.198-.278 0-.397-.994-.754-2.107-1.111-3.379-1.111-1.987 0-3.378 1.19-3.378 2.937v.04c0 1.985 1.391 2.5 3.179 2.977 1.59.397 1.868.675 1.868 1.151 0 .516-.476.834-1.311.834-.875 0-1.67-.318-2.544-.993-.199-.119-.358-.119-.477.04-.079.08-.358.476-.596.794l-.278.357c-.04.08-.04.12-.04.159 0 .08.199.238.278.317l.04.04c.04.04.079.04.119.08.994.714 2.186 1.071 3.498 1.071 2.186 0 3.537-1.15 3.537-3.017v-.04c0-1.666-1.232-2.341-3.02-2.817z" fill="#0076A9"/><g opacity=".5"><mask id="a" style="mask-type:luminance" maskUnits="userSpaceOnUse" x="109" y="44" width="42" height="6"><path d="M109.423 44.577h40.661v5.041h-40.661v-5.04z" fill="#fff"/></mask><g mask="url(#a)"><path d="M109.661 48.785c.239.159.636.278.994.278.477 0 .875-.16.875-.715 0-1.032-2.067-.913-2.067-2.302 0-.675.516-1.23 1.391-1.23.437 0 .835.118 1.033.198v.555c-.278-.158-.675-.238-1.033-.238-.358 0-.795.16-.795.635 0 .993 2.067.874 2.067 2.342 0 .794-.676 1.27-1.511 1.27-.516 0-.954-.158-1.271-.317l.317-.476z" fill="#EBEFF4"/></g><mask id="b" style="mask-type:luminance" maskUnits="userSpaceOnUse" x="109" y="44" width="42" height="6"><path d="M109.423 44.577h40.661v5.041h-40.661v-5.04z" fill="#fff"/></mask><g mask="url(#b)"><path d="M113 47.276c0-1.389.954-2.381 2.306-2.381 1.351 0 2.265.992 2.265 2.381 0 1.43-.994 2.342-2.265 2.342-1.352 0-2.306-.952-2.306-2.342zm3.856 0c0-1.032-.636-1.826-1.59-1.826-.954 0-1.59.755-1.59 1.826 0 1.112.676 1.826 1.59 1.826s1.59-.754 1.59-1.826z" fill="#EBEFF4"/></g><mask id="c" style="mask-type:luminance" maskUnits="userSpaceOnUse" x="109" y="44" width="42" height="6"><path d="M109.423 44.577h40.661v5.041h-40.661v-5.04z" fill="#fff"/></mask><g mask="url(#c)"><path d="M118.525 44.895h.557l1.271 1.865c.159.278.279.477.438.675.079-.159.198-.357.357-.675l1.193-1.865h.556v4.644h-.556v-3.612c-.08.159-.239.436-.318.555l-1.073 1.668h-.279l-1.192-1.707c-.079-.12-.199-.278-.278-.477v3.573h-.636v-4.644h-.04z" fill="#EBEFF4"/></g><mask id="d" style="mask-type:luminance" maskUnits="userSpaceOnUse" x="109" y="44" width="42" height="6"><path d="M109.423 44.577h40.661v5.041h-40.661v-5.04z" fill="#fff"/></mask><g mask="url(#d)"><path d="M123.891 47.276c0-1.389.954-2.381 2.305-2.381 1.352 0 2.266.992 2.266 2.381 0 1.43-.994 2.342-2.266 2.342-1.311 0-2.305-.952-2.305-2.342zm3.895 0c0-1.032-.636-1.826-1.59-1.826-.954 0-1.59.755-1.59 1.826 0 1.112.676 1.826 1.59 1.826s1.59-.754 1.59-1.826z" fill="#EBEFF4"/></g><mask id="e" style="mask-type:luminance" maskUnits="userSpaceOnUse" x="109" y="44" width="42" height="6"><path d="M109.423 44.577h40.661v5.041h-40.661v-5.04z" fill="#fff"/></mask><g mask="url(#e)"><path d="M129.495 48.785c.199.159.636.278.994.278.477 0 .874-.16.874-.715 0-1.032-2.067-.913-2.067-2.302 0-.675.517-1.23 1.392-1.23.437 0 .834.118 1.033.198v.555c-.278-.158-.715-.238-1.033-.238-.358 0-.795.16-.795.635 0 .993 2.067.874 2.067 2.342 0 .794-.676 1.27-1.511 1.27-.517 0-.954-.158-1.272-.317l.318-.476z" fill="#EBEFF4"/></g><mask id="f" style="mask-type:luminance" maskUnits="userSpaceOnUse" x="109" y="44" width="42" height="6"><path d="M109.423 44.577h40.661v5.041h-40.661v-5.04z" fill="#fff"/></mask><g mask="url(#f)"><path d="M137.961 49.3a2.918 2.918 0 01-1.351.318c-1.431 0-2.266-.952-2.266-2.342 0-1.35.954-2.381 2.346-2.381.477 0 .914.119 1.192.238v.555a2.641 2.641 0 00-1.192-.277c-1.034 0-1.67.833-1.67 1.865 0 1.072.676 1.826 1.63 1.826.437 0 .795-.119 1.113-.278l.198.477z" fill="#EBEFF4"/></g><mask id="g" style="mask-type:luminance" maskUnits="userSpaceOnUse" x="109" y="44" width="42" height="6"><path d="M109.423 44.577h40.661v5.041h-40.661v-5.04z" fill="#fff"/></mask><g mask="url(#g)"><path d="M142.135 49.3a2.92 2.92 0 01-1.352.318c-1.43 0-2.265-.952-2.265-2.342 0-1.35.954-2.381 2.345-2.381.517 0 .914.119 1.192.238v.555a2.641 2.641 0 00-1.192-.277c-1.034 0-1.669.833-1.669 1.865 0 1.072.675 1.826 1.629 1.826.437 0 .795-.119 1.113-.278l.199.477z" fill="#EBEFF4"/></g><mask id="h" style="mask-type:luminance" maskUnits="userSpaceOnUse" x="109" y="44" width="42" height="6"><path d="M109.423 44.577h40.661v5.041h-40.661v-5.04z" fill="#fff"/></mask><g mask="url(#h)"><path d="M142.89 44.577h.636v2.064c.318-.238.715-.476 1.113-.476.516 0 .993.278.993 1.19v2.224h-.636v-2.065c0-.476-.119-.833-.556-.833-.318 0-.676.198-.954.437v2.381h-.636l.04-4.922z" fill="#EBEFF4"/></g><mask id="i" style="mask-type:luminance" maskUnits="userSpaceOnUse" x="109" y="44" width="42" height="6"><path d="M109.423 44.577h40.661v5.041h-40.661v-5.04z" fill="#fff"/></mask><g mask="url(#i)"><path d="M150.084 49.3a2.918 2.918 0 01-1.351.318c-1.431 0-2.266-.952-2.266-2.342 0-1.35.954-2.381 2.345-2.381a3 3 0 011.193.238v.555a2.565 2.565 0 00-1.113-.277c-1.034 0-1.67.833-1.67 1.865 0 1.072.676 1.826 1.63 1.826.437 0 .795-.119 1.113-.278l.119.477z" fill="#EBEFF4"/></g></g><path d="M99.01 31.637h-5.327c-.715 0-1.272.595-1.272 1.31v5.319c0 .714.597 1.31 1.272 1.31h5.326c.716 0 1.272-.596 1.272-1.31v-5.28a1.274 1.274 0 00-1.272-1.35z" fill="#F9BE00"/><path d="M87.761 31.637h-9.34c-3.498 0-6.718-1.43-8.944-3.692-2.225-2.263-15.74-22.864-15.74-22.864a1.339 1.339 0 00-1.073-.516h-6.637c-.437 0-.914.238-1.113.635-.875 1.151-15.62 20.959-17.767 23.142-2.226 2.263-5.445 3.692-8.943 3.692-5.485 0-9.937-4.446-9.937-9.924 0-5.12 3.816-9.249 8.784-9.844a1.286 1.286 0 001.153-1.27v-5.4c0-.753-.596-1.309-1.312-1.309C7.711 4.962.358 12.623.358 22.07c0 9.884 7.989 17.863 17.886 17.863 5.683 0 11.169-2.382 14.547-5.994 2.862-3.096 12.838-16.434 15.78-20.324.159-.238.437-.516.755-.516s.636.278.795.596c2.504 3.89 10.97 16.87 13.792 19.966 3.339 3.612 8.824 5.994 14.508 5.994h9.34c.755 0 1.312-.596 1.312-1.31v-5.359c0-.754-.636-1.35-1.312-1.35z" fill="#0076A9"/></svg>