<svg width="56" height="57" viewBox="0 0 56 57" fill="none"
    xmlns="http://www.w3.org/2000/svg">
    <path d="M35.5439 36.4848V39.0909C35.5439 39.6162 35.3671 40.0606 35.0135 40.4242C34.6599 40.7475 34.2473 40.9091 33.7758 40.9091H22.3421C21.8706 40.9091 21.458 40.7475 21.1044 40.4242C20.7508 40.0606 20.574 39.6162 20.574 39.0909V36.4848C20.574 34.8687 21.124 33.5152 22.2242 32.4242C23.3243 31.3333 24.6406 30.7879 26.173 30.7879H30.0039C31.5362 30.7879 32.8328 31.3535 33.8937 32.4848C34.9938 33.5758 35.5439 34.9091 35.5439 36.4848ZM23.8155 34.0606C23.5012 34.3838 23.2458 34.7677 23.0493 35.2121C22.8921 35.6162 22.8136 36.0404 22.8136 36.4848V38.6061H33.2454V36.4848C33.2454 36.0404 33.1472 35.6162 32.9507 35.2121C32.7935 34.7677 32.5578 34.3838 32.2435 34.0606C31.9291 33.7374 31.5559 33.4949 31.1237 33.3333C30.7307 33.1717 30.3378 33.0909 29.9449 33.0909H26.173C25.7408 33.0909 25.3282 33.1717 24.9353 33.3333C24.5424 33.4949 24.1691 33.7374 23.8155 34.0606ZM31.5362 28.9697L31.5951 29.0303C30.6129 30 29.4341 30.4848 28.0589 30.4848C26.6837 30.4848 25.505 29.9798 24.5227 28.9697C23.5797 27.9596 23.1082 26.7677 23.1082 25.3939C23.1082 23.9798 23.5797 22.7879 24.5227 21.8182C25.505 20.8081 26.6837 20.303 28.0589 20.303C29.4341 20.303 30.5932 20.7879 31.5362 21.7576C32.5185 22.7273 33.0096 23.9394 33.0096 25.3939C33.0096 26.8081 32.5185 28 31.5362 28.9697ZM25.4068 25.3939L25.3478 25.3333C25.3478 26.101 25.6032 26.7677 26.114 27.3333C26.6641 27.8586 27.2928 28.1212 28 28.1212C28.7465 28.1212 29.3752 27.8586 29.886 27.3333C30.4361 26.7677 30.7111 26.1212 30.7111 25.3939C30.7111 24.6263 30.4557 23.9798 29.9449 23.4545C29.4341 22.8889 28.8055 22.6061 28.0589 22.6061C27.3517 22.6061 26.723 22.8889 26.173 23.4545C25.6622 23.9798 25.4068 24.6263 25.4068 25.3939ZM37.4299 32.6061C36.4083 32.6061 35.5243 32.2424 34.7777 31.5152C34.0705 30.7879 33.7169 29.899 33.7169 28.8485C33.7169 27.798 34.0705 26.9091 34.7777 26.1818C35.5243 25.4545 36.4083 25.0909 37.4299 25.0909C38.4515 25.0909 39.3159 25.4545 40.0231 26.1818C40.7304 26.9091 41.084 27.798 41.084 28.8485C41.084 29.899 40.7304 30.7879 40.0231 31.5152C39.3159 32.2424 38.4515 32.6061 37.4299 32.6061ZM35.8386 28.8485C35.8386 29.2929 35.9958 29.6768 36.3101 30C36.6244 30.3232 36.9977 30.4848 37.4299 30.4848C37.8621 30.4848 38.2157 30.3232 38.4908 30C38.8051 29.6768 38.9622 29.2929 38.9622 28.8485C38.9622 28.404 38.8051 28.0202 38.4908 27.697C38.2157 27.3737 37.8621 27.2121 37.4299 27.2121C36.9977 27.2121 36.6244 27.3737 36.3101 27.697C35.9958 28.0202 35.8386 28.404 35.8386 28.8485ZM38.0782 33.2121V33.1515C39.2569 33.1515 40.2589 33.5758 41.084 34.4242C41.9091 35.2727 42.3216 36.3232 42.3216 37.5758V39.4545C42.3216 39.899 42.1645 40.2828 41.8502 40.6061C41.5751 40.8889 41.2215 41.0303 40.7893 41.0303H35.6029C35.4457 41.0303 35.3475 40.9697 35.3082 40.8485C35.3082 40.6869 35.3867 40.5859 35.5439 40.5455C35.8975 40.4242 36.1529 40.2828 36.3101 40.1212C36.5851 39.8788 36.7227 39.5556 36.7227 39.1515V39.0303C36.7227 38.8687 36.8012 38.7879 36.9584 38.7879H40.141V37.5758C40.141 37.3333 40.0821 37.0707 39.9642 36.7879C39.8463 36.5051 39.6891 36.2626 39.4927 36.0606C39.2962 35.8586 39.0605 35.7172 38.7854 35.6364C38.5497 35.5152 38.2943 35.4545 38.0193 35.4545H36.7227C36.6048 35.4545 36.5262 35.3939 36.4869 35.2727C36.369 34.6667 36.1333 34.101 35.7797 33.5758C35.7404 33.4545 35.7404 33.3737 35.7797 33.3333L35.9565 33.2121H38.0782ZM21.2812 31.3333C20.5347 32.0202 19.6506 32.3636 18.629 32.3636C17.6075 32.3636 16.7431 32 16.0358 31.2727C15.3286 30.5455 14.975 29.6566 14.975 28.6061C14.975 27.5556 15.3286 26.6667 16.0358 25.9394C16.7431 25.2121 17.6075 24.8485 18.629 24.8485C19.6506 24.8485 20.515 25.2121 21.2223 25.9394C21.9688 26.6667 22.3421 27.5556 22.3421 28.6061C22.3421 29.6566 21.9884 30.5657 21.2812 31.3333ZM17.0967 28.6061C17.0967 29.0909 17.2342 29.4949 17.5092 29.8182C17.8236 30.101 18.1968 30.2424 18.629 30.2424C19.1005 30.2424 19.4738 30.0808 19.7488 29.7576C20.0632 29.4343 20.2203 29.0505 20.2203 28.6061C20.2203 28.1616 20.0632 27.7778 19.7488 27.4545C19.4345 27.1313 19.0612 26.9697 18.629 26.9697C18.2361 26.9697 17.8825 27.1313 17.5682 27.4545C17.2539 27.7778 17.0967 28.1616 17.0967 28.6061ZM19.7488 39.9394V40C19.8667 40.1212 20.1221 40.2424 20.515 40.3636C20.6329 40.404 20.6918 40.5051 20.6918 40.6667C20.6918 40.7071 20.6525 40.7475 20.574 40.7879L20.4561 40.8485H15.2696C14.8374 40.8485 14.4642 40.7071 14.1498 40.4242C13.8748 40.101 13.7373 39.7172 13.7373 39.2727V37.3939C13.7373 36.1818 14.1498 35.1515 14.975 34.303C15.8394 33.4545 16.8413 33.0303 17.9807 33.0303H20.1025C20.181 33.0303 20.24 33.0707 20.2793 33.1515C20.3579 33.1919 20.3579 33.2727 20.2793 33.3939C19.9257 33.9192 19.6899 34.4646 19.572 35.0303C19.572 35.1111 19.5327 35.1717 19.4542 35.2121L19.3363 35.2727H18.0397C17.7646 35.2727 17.4896 35.3333 17.2146 35.4545C16.9788 35.5354 16.7627 35.6768 16.5663 35.8788C16.3698 36.0404 16.2126 36.2626 16.0948 36.5455C15.9769 36.7879 15.918 37.0707 15.918 37.3939V38.6061H19.1005C19.2577 38.6061 19.3363 38.6869 19.3363 38.8485V39.0303C19.3363 39.3939 19.4738 39.697 19.7488 39.9394ZM44.6791 17.0909C44.9542 17.4949 45.0524 17.9596 44.9738 18.4848L43.2646 28.6061C42.9896 30.101 42.5378 31.6364 41.9091 33.2121L41.7912 33.2727L41.7323 33.3333L41.6144 33.3939L41.4965 33.3333L40.8482 32.9091C40.7304 32.7879 40.7107 32.6667 40.7893 32.5455C40.7893 32.5051 40.8089 32.4848 40.8482 32.4848V32.4242C41.8305 31.4141 42.3216 30.202 42.3216 28.7879C42.3216 27.697 42.0466 26.7475 41.4965 25.9394L41.4376 25.7576L42.6753 18.303L28.0589 13.3333L13.2658 17.8788L14.3856 25.7576C14.3856 25.798 14.3856 25.8586 14.3856 25.9394C13.8748 26.7475 13.6194 27.6364 13.6194 28.6061C13.6194 30.0606 14.0909 31.2727 15.0339 32.2424L15.1518 32.3636C15.1911 32.3636 15.2304 32.404 15.2696 32.4848C15.3089 32.5253 15.3089 32.5859 15.2696 32.6667L15.2107 32.7879L14.2088 33.3939H14.032L13.9141 33.3333V33.2727C13.2069 31.5354 12.7354 29.8384 12.4996 28.1818L11.0262 18C10.9476 17.4747 11.0458 17.0101 11.3209 16.6061C11.5959 16.1616 11.9692 15.8586 12.4407 15.697L27.4696 11.0909C27.5482 11.0505 27.6464 11.0303 27.7643 11.0303C28.0393 10.9899 28.2554 10.9899 28.4126 11.0303L28.7072 11.0909L43.6183 16.1212C44.0898 16.2828 44.4434 16.6061 44.6791 17.0909ZM30.8879 42.303H34.3652C34.4831 42.303 34.5616 42.3636 34.6009 42.4848C34.6402 42.6061 34.6009 42.6869 34.4831 42.7273L33.7169 43.3939C31.9095 44.5253 30.1021 45.3535 28.2947 45.8788C28.2161 45.9192 28.1179 45.9394 28 45.9394L27.7053 46C27.6267 46 27.5285 45.9798 27.4106 45.9394L27.1159 45.8788C25.1907 45.2323 23.4226 44.3434 21.8116 43.2121L21.2812 42.7273C21.1633 42.6869 21.124 42.6061 21.1633 42.4848C21.1633 42.4444 21.2026 42.404 21.2812 42.3636L21.3991 42.303L24.8174 42.3636C25.8783 42.8889 26.8606 43.3131 27.7643 43.6364C28.7072 43.3131 29.7288 42.8687 30.829 42.303C30.8683 42.303 30.8879 42.303 30.8879 42.303Z" fill="#586264"/>
</svg>
