<svg width="157" height="52" viewBox="0 0 157 52" fill="none"
    xmlns="http://www.w3.org/2000/svg">
    <path d="M134.94 4.48548H134.185C134.066 4.48548 133.947 4.60457 133.947 4.72365V10.9557C133.907 12.2259 133.192 12.9801 132.158 12.9801C131.363 12.9801 130.926 12.742 130.33 12.0672C130.29 12.0275 130.25 11.9878 130.211 11.9084C130.131 11.7893 130.091 11.7496 130.012 11.7496C129.932 11.7496 129.853 11.7496 129.813 11.7893C129.734 11.829 129.416 12.1069 129.376 12.1466C129.296 12.1862 129.257 12.2656 129.257 12.3847C129.257 12.4244 129.296 12.4641 129.296 12.5038C130.012 13.4962 130.926 14.0122 132.158 14.0122C133.033 14.0122 133.708 13.7343 134.265 13.2183C134.861 12.6229 135.139 11.7893 135.139 10.7175V4.68396C135.179 4.56487 135.06 4.48548 134.94 4.48548ZM126.872 10.5588C125.759 8.0977 124.487 5.27938 124.209 4.68396C124.169 4.60457 124.09 4.56487 123.97 4.56487H123.175C123.096 4.56487 123.016 4.60457 122.977 4.68396C122.579 5.63663 119.757 11.7893 118.922 13.6153C118.883 13.6549 118.883 13.7343 118.922 13.8137C118.962 13.8534 119.002 13.8931 119.081 13.8931H119.757C119.876 13.8931 119.996 13.8137 120.075 13.6946L121.029 11.5908H126.077L127.031 13.6946C127.071 13.8137 127.19 13.8931 127.349 13.8931H128.104C128.183 13.8931 128.223 13.8534 128.263 13.8137C128.303 13.774 128.303 13.6946 128.263 13.6153C127.985 12.9404 127.468 11.7893 126.872 10.5588ZM125.64 10.5191H121.506L123.573 5.91449L125.64 10.5191ZM146.149 13.5756C145.871 12.9404 145.314 11.7893 144.758 10.5191C143.645 8.058 142.373 5.23968 142.095 4.64426C142.055 4.56487 141.976 4.52518 141.856 4.52518H141.061C140.982 4.52518 140.902 4.56487 140.863 4.64426C140.465 5.59693 137.643 11.7496 136.809 13.5756C136.769 13.6153 136.769 13.6946 136.809 13.774C136.848 13.8137 136.888 13.8534 136.968 13.8534H137.643C137.762 13.8534 137.882 13.774 137.961 13.6549L138.915 11.5511H143.963L144.917 13.6549C144.957 13.774 145.076 13.8534 145.235 13.8534H145.99C146.07 13.8534 146.109 13.8137 146.149 13.774V13.5756ZM143.486 10.5191H139.352L141.419 5.91449L143.486 10.5191ZM117.611 12.2656C117.571 12.2259 117.531 12.1465 117.492 12.1069C117.412 12.0275 117.333 11.9084 117.333 11.8687C117.293 11.7893 117.174 11.7496 117.094 11.7893C117.054 11.7893 117.015 11.829 116.975 11.8687C116.061 12.7023 115.226 13.0198 114.193 13.0198C112.166 13.0198 110.615 11.3527 110.615 9.20915V9.12976C110.615 6.94655 112.166 5.31907 114.193 5.31907C115.186 5.31907 116.021 5.63663 116.816 6.35113L116.856 6.39083C116.935 6.43052 116.935 6.47021 117.015 6.50991C117.094 6.5496 117.213 6.50991 117.253 6.43052C117.293 6.39083 117.651 5.8351 117.651 5.8351C117.69 5.79541 117.69 5.71602 117.69 5.63663C117.69 5.59693 117.611 5.51754 117.531 5.43815C116.538 4.60457 115.544 4.24731 114.193 4.24731C111.49 4.24731 109.383 6.43052 109.383 9.16945V9.20915C109.383 11.9878 111.45 14.0916 114.153 14.0916C115.544 14.0916 116.617 13.6549 117.69 12.7023C117.73 12.6626 117.77 12.6229 117.77 12.5832C117.81 12.5038 117.77 12.4244 117.73 12.3847L117.611 12.2656ZM114.988 30.1282H113.557C113.437 30.1282 113.278 30.2076 113.239 30.3267C112.762 31.4778 110.337 36.7969 109.542 38.6229L109.343 39.0595C109.304 39.1389 109.304 39.2183 109.383 39.2977C109.423 39.3771 109.502 39.4168 109.622 39.4168H111.45C111.569 39.4168 111.689 39.3374 111.768 39.2183L114.312 33.3435L116.895 39.2183C116.935 39.3374 117.054 39.4168 117.213 39.4168H119.002C119.081 39.4168 119.161 39.3771 119.24 39.2977C119.28 39.2183 119.28 39.1389 119.24 39.0595C118.525 37.5511 115.902 31.5175 115.385 30.287C115.226 30.2076 115.107 30.1282 114.988 30.1282ZM147.62 30.1282H141.3C141.101 30.1282 140.982 30.287 140.982 30.4458V39.1786C140.982 39.258 141.022 39.3374 141.061 39.4168C141.141 39.4962 141.22 39.4962 141.3 39.4962H147.62C147.818 39.4962 147.938 39.3374 147.938 39.1786V37.9481C147.938 37.7496 147.779 37.6305 147.62 37.6305H143.089V35.7649H146.785C146.984 35.7649 147.103 35.6061 147.103 35.4473V34.2168C147.103 34.0183 146.944 33.8992 146.785 33.8992H143.089V32.113H147.62C147.818 32.113 147.938 31.9542 147.938 31.7954V30.5649C147.938 30.287 147.779 30.1282 147.62 30.1282ZM153.582 33.8198C151.952 33.4229 151.555 33.1847 151.555 32.629V32.5893C151.555 32.1527 151.992 31.7954 152.707 31.7954C153.383 31.7954 154.098 32.0336 154.973 32.629C155.013 32.6687 155.052 32.6687 155.092 32.6687C155.211 32.6687 155.291 32.5893 155.331 32.5099C155.41 32.4305 155.688 31.9939 155.927 31.6366C156.006 31.5175 156.086 31.3985 156.126 31.3588C156.205 31.2397 156.324 31.0809 156.126 30.9618C155.132 30.2076 154.019 29.8504 152.747 29.8504C150.76 29.8504 149.369 31.0412 149.369 32.7878V32.8275C149.369 34.8122 150.76 35.3282 152.548 35.8046C154.138 36.2015 154.416 36.4794 154.416 36.9557V36.9954C154.416 37.5114 153.939 37.829 153.105 37.829C152.23 37.829 151.435 37.5114 150.561 36.8366C150.362 36.6778 150.203 36.7175 150.084 36.8763C150.005 36.9557 149.726 37.3527 149.488 37.6702L149.21 38.0275C149.17 38.1069 149.17 38.1465 149.17 38.1862C149.17 38.2259 149.289 38.345 149.448 38.5038C149.488 38.5435 149.567 38.5832 149.607 38.6229C150.601 39.3374 151.793 39.6946 153.105 39.6946C155.291 39.6946 156.642 38.5435 156.642 36.6778V36.6382C156.682 34.971 155.45 34.2962 153.582 33.8198ZM128.899 30.1282H127.468C127.269 30.1282 127.11 30.287 127.11 30.4855V35.7252L122.937 30.2473C122.857 30.1679 122.778 30.1282 122.659 30.1282H121.228C121.029 30.1282 120.91 30.287 120.91 30.4458V39.1389C120.91 39.3374 121.069 39.4565 121.228 39.4565H122.659C122.857 39.4565 122.977 39.2977 122.977 39.1389V33.7007L127.309 39.3374C127.389 39.4168 127.468 39.4565 127.587 39.4565H128.899C129.098 39.4565 129.217 39.2977 129.217 39.1389V30.4458C129.257 30.287 129.098 30.1282 128.899 30.1282ZM135.02 30.1282H131.681C131.602 30.1282 131.522 30.1679 131.443 30.2076C131.363 30.287 131.363 30.3664 131.363 30.4458V39.0595C131.363 39.258 131.522 39.3771 131.681 39.3771H135.02C137.802 39.3771 139.75 37.432 139.75 34.6931V34.6534C139.75 33.3435 139.313 32.1924 138.478 31.3191C137.603 30.5649 136.411 30.1282 135.02 30.1282ZM135.02 37.5511H133.51V32.0733H135.02C136.57 32.0733 137.524 33.1053 137.524 34.7725V34.8122C137.484 36.5588 136.53 37.5511 135.02 37.5511ZM117.174 24.6901H112.801V17.6641C112.801 17.4656 112.642 17.3069 112.444 17.3069H110.973C110.774 17.3069 110.615 17.4656 110.615 17.6641V26.3572C110.615 26.5557 110.774 26.7145 110.973 26.7145H117.134C117.333 26.7145 117.452 26.5557 117.452 26.3969V25.087C117.492 24.8091 117.333 24.6901 117.174 24.6901ZM123.334 17.029C120.473 17.029 118.287 19.2122 118.287 21.9511V21.9908C118.287 24.7694 120.473 26.8733 123.334 26.8733C126.196 26.8733 128.382 24.6901 128.382 21.9511V21.9114C128.422 19.1725 126.236 17.029 123.334 17.029ZM120.552 21.9908C120.552 20.3633 121.745 19.0931 123.295 19.0931C124.845 19.0931 126.077 20.3633 126.077 22.0305V22.0702C126.077 23.6977 124.884 24.9679 123.334 24.9679C121.744 24.8885 120.552 23.6183 120.552 21.9908ZM133.828 20.9985C132.198 20.6015 131.8 20.3633 131.8 19.8076V19.7679C131.8 19.3313 132.238 18.974 132.953 18.974C133.629 18.974 134.344 19.2122 135.219 19.8076C135.258 19.8473 135.298 19.8473 135.338 19.8473C135.417 19.8473 135.497 19.8076 135.576 19.6885C135.656 19.6091 135.894 19.2519 136.093 18.9343C136.212 18.7756 136.292 18.6168 136.332 18.5771C136.411 18.458 136.53 18.2992 136.332 18.1801C135.338 17.4259 134.225 17.0687 132.953 17.0687C130.966 17.0687 129.575 18.2595 129.575 20.0061V20.0458C129.575 22.0305 130.966 22.5465 132.754 23.0229C134.344 23.4198 134.622 23.6977 134.622 24.174C134.622 24.6901 134.146 25.0076 133.311 25.0076C132.436 25.0076 131.641 24.6901 130.767 24.0153C130.568 23.8962 130.409 23.8962 130.29 24.0549C130.211 24.1343 129.932 24.5313 129.694 24.8488L129.416 25.2061C129.376 25.2855 129.376 25.3252 129.376 25.3649C129.376 25.4443 129.575 25.603 129.654 25.6824L129.694 25.7221C129.734 25.7618 129.773 25.7618 129.813 25.8015C130.807 26.516 131.999 26.8733 133.311 26.8733C135.497 26.8733 136.848 25.7221 136.848 23.8565V23.8168C136.848 22.1496 135.616 21.4748 133.828 20.9985Z" fill="#0076A9"/>
    <g opacity="0.5">
        <mask id="mask0_2098_9455" style="mask-type:luminance" maskUnits="userSpaceOnUse" x="109" y="44" width="42" height="6">
            <path d="M109.423 44.5771H150.084V49.6183H109.423V44.5771Z" fill="white"/>
        </mask>
        <g mask="url(#mask0_2098_9455)">
            <path d="M109.661 48.7847C109.9 48.9435 110.297 49.0626 110.655 49.0626C111.132 49.0626 111.53 48.9038 111.53 48.3481C111.53 47.316 109.463 47.4351 109.463 46.0458C109.463 45.371 109.979 44.8152 110.854 44.8152C111.291 44.8152 111.689 44.9343 111.887 45.0137V45.5694C111.609 45.4107 111.212 45.3313 110.854 45.3313C110.496 45.3313 110.059 45.4901 110.059 45.9664C110.059 46.9588 112.126 46.8397 112.126 48.3084C112.126 49.1023 111.45 49.5786 110.615 49.5786C110.099 49.5786 109.661 49.4198 109.344 49.261L109.661 48.7847Z" fill="#EBEFF4"/>
        </g>
        <mask id="mask1_2098_9455" style="mask-type:luminance" maskUnits="userSpaceOnUse" x="109" y="44" width="42" height="6">
            <path d="M109.423 44.5771H150.084V49.6183H109.423V44.5771Z" fill="white"/>
        </mask>
        <g mask="url(#mask1_2098_9455)">
            <path d="M113 47.2763C113 45.887 113.954 44.8947 115.306 44.8947C116.657 44.8947 117.571 45.887 117.571 47.2763C117.571 48.7053 116.577 49.6183 115.306 49.6183C113.954 49.6183 113 48.6656 113 47.2763ZM116.856 47.2763C116.856 46.2443 116.22 45.4504 115.266 45.4504C114.312 45.4504 113.676 46.2046 113.676 47.2763C113.676 48.3878 114.352 49.1023 115.266 49.1023C116.18 49.1023 116.856 48.3481 116.856 47.2763Z" fill="#EBEFF4"/>
        </g>
        <mask id="mask2_2098_9455" style="mask-type:luminance" maskUnits="userSpaceOnUse" x="109" y="44" width="42" height="6">
            <path d="M109.423 44.5771H150.084V49.6183H109.423V44.5771Z" fill="white"/>
        </mask>
        <g mask="url(#mask2_2098_9455)">
            <path d="M118.525 44.8947H119.082L120.353 46.7603C120.512 47.0382 120.632 47.2366 120.791 47.4351C120.87 47.2763 120.989 47.0779 121.148 46.7603L122.341 44.8947H122.897V49.5389H122.341V45.9267C122.261 46.0855 122.102 46.3634 122.023 46.4824L120.95 48.1496H120.671L119.479 46.4427C119.4 46.3237 119.28 46.1649 119.201 45.9664V49.5389H118.565V44.8947H118.525Z" fill="#EBEFF4"/>
        </g>
        <mask id="mask3_2098_9455" style="mask-type:luminance" maskUnits="userSpaceOnUse" x="109" y="44" width="42" height="6">
            <path d="M109.423 44.5771H150.084V49.6183H109.423V44.5771Z" fill="white"/>
        </mask>
        <g mask="url(#mask3_2098_9455)">
            <path d="M123.891 47.2763C123.891 45.887 124.845 44.8947 126.196 44.8947C127.548 44.8947 128.462 45.887 128.462 47.2763C128.462 48.7053 127.468 49.6183 126.196 49.6183C124.885 49.6183 123.891 48.6656 123.891 47.2763ZM127.786 47.2763C127.786 46.2443 127.15 45.4504 126.196 45.4504C125.242 45.4504 124.606 46.2046 124.606 47.2763C124.606 48.3878 125.282 49.1023 126.196 49.1023C127.11 49.1023 127.786 48.3481 127.786 47.2763Z" fill="#EBEFF4"/>
        </g>
        <mask id="mask4_2098_9455" style="mask-type:luminance" maskUnits="userSpaceOnUse" x="109" y="44" width="42" height="6">
            <path d="M109.423 44.5771H150.084V49.6183H109.423V44.5771Z" fill="white"/>
        </mask>
        <g mask="url(#mask4_2098_9455)">
            <path d="M129.495 48.7847C129.694 48.9435 130.131 49.0626 130.489 49.0626C130.966 49.0626 131.363 48.9038 131.363 48.3481C131.363 47.316 129.296 47.4351 129.296 46.0458C129.296 45.371 129.813 44.8152 130.688 44.8152C131.125 44.8152 131.522 44.9343 131.721 45.0137V45.5694C131.443 45.4107 131.006 45.3313 130.688 45.3313C130.33 45.3313 129.893 45.4901 129.893 45.9664C129.893 46.9588 131.96 46.8397 131.96 48.3084C131.96 49.1023 131.284 49.5786 130.449 49.5786C129.932 49.5786 129.495 49.4198 129.177 49.261L129.495 48.7847Z" fill="#EBEFF4"/>
        </g>
        <mask id="mask5_2098_9455" style="mask-type:luminance" maskUnits="userSpaceOnUse" x="109" y="44" width="42" height="6">
            <path d="M109.423 44.5771H150.084V49.6183H109.423V44.5771Z" fill="white"/>
        </mask>
        <g mask="url(#mask5_2098_9455)">
            <path d="M137.961 49.3008C137.484 49.5389 137.047 49.6183 136.61 49.6183C135.179 49.6183 134.344 48.6656 134.344 47.2763C134.344 45.9267 135.298 44.8947 136.69 44.8947C137.167 44.8947 137.604 45.0137 137.882 45.1328V45.6885C137.564 45.5298 137.167 45.4107 136.69 45.4107C135.656 45.4107 135.02 46.2443 135.02 47.2763C135.02 48.3481 135.696 49.1023 136.65 49.1023C137.087 49.1023 137.445 48.9832 137.763 48.8244L137.961 49.3008Z" fill="#EBEFF4"/>
        </g>
        <mask id="mask6_2098_9455" style="mask-type:luminance" maskUnits="userSpaceOnUse" x="109" y="44" width="42" height="6">
            <path d="M109.423 44.5771H150.084V49.6183H109.423V44.5771Z" fill="white"/>
        </mask>
        <g mask="url(#mask6_2098_9455)">
            <path d="M142.135 49.3008C141.658 49.5389 141.221 49.6183 140.783 49.6183C139.353 49.6183 138.518 48.6656 138.518 47.2763C138.518 45.9267 139.472 44.8947 140.863 44.8947C141.38 44.8947 141.777 45.0137 142.055 45.1328V45.6885C141.737 45.5298 141.34 45.4107 140.863 45.4107C139.829 45.4107 139.194 46.2443 139.194 47.2763C139.194 48.3481 139.869 49.1023 140.823 49.1023C141.26 49.1023 141.618 48.9832 141.936 48.8244L142.135 49.3008Z" fill="#EBEFF4"/>
        </g>
        <mask id="mask7_2098_9455" style="mask-type:luminance" maskUnits="userSpaceOnUse" x="109" y="44" width="42" height="6">
            <path d="M109.423 44.5771H150.084V49.6183H109.423V44.5771Z" fill="white"/>
        </mask>
        <g mask="url(#mask7_2098_9455)">
            <path d="M142.89 44.5771H143.526V46.6412C143.844 46.403 144.241 46.1649 144.639 46.1649C145.155 46.1649 145.632 46.4427 145.632 47.3557V49.5786H144.996V47.5145C144.996 47.0382 144.877 46.6809 144.44 46.6809C144.122 46.6809 143.764 46.8794 143.486 47.1175V49.4992H142.85L142.89 44.5771Z" fill="#EBEFF4"/>
        </g>
        <mask id="mask8_2098_9455" style="mask-type:luminance" maskUnits="userSpaceOnUse" x="109" y="44" width="42" height="6">
            <path d="M109.423 44.5771H150.084V49.6183H109.423V44.5771Z" fill="white"/>
        </mask>
        <g mask="url(#mask8_2098_9455)">
            <path d="M150.084 49.3008C149.607 49.5389 149.17 49.6183 148.733 49.6183C147.302 49.6183 146.467 48.6656 146.467 47.2763C146.467 45.9267 147.421 44.8947 148.812 44.8947C149.329 44.8947 149.726 45.0137 150.005 45.1328V45.6885C149.687 45.5298 149.289 45.4107 148.892 45.4107C147.858 45.4107 147.222 46.2443 147.222 47.2763C147.222 48.3481 147.898 49.1023 148.852 49.1023C149.289 49.1023 149.647 48.9832 149.965 48.8244L150.084 49.3008Z" fill="#EBEFF4"/>
        </g>
    </g>
    <path d="M99.0094 31.6366H93.6833C92.9678 31.6366 92.4114 32.232 92.4114 32.9466V38.2656C92.4114 38.9801 93.0076 39.5756 93.6833 39.5756H99.0094C99.7248 39.5756 100.281 38.9801 100.281 38.2656V32.9862C100.321 32.232 99.7248 31.6366 99.0094 31.6366Z" fill="#F9BE00"/>
    <path d="M87.761 31.6366H78.4205C74.9227 31.6366 71.7032 30.2076 69.4774 27.945C67.2516 25.6824 53.7377 5.08091 53.7377 5.08091C53.4992 4.76335 53.1017 4.56488 52.6645 4.56488H46.0268C45.5896 4.56488 45.1126 4.80305 44.9139 5.2C44.0394 6.35114 29.2934 26.1588 27.147 28.342C24.9212 30.6046 21.7017 32.0336 18.204 32.0336C12.7189 32.0336 8.26729 27.5878 8.26729 22.1099C8.26729 16.9893 12.083 12.8611 17.0513 12.2656C17.727 12.1863 18.204 11.6305 18.204 10.9954V5.59694C18.204 4.84274 17.6078 4.28702 16.8923 4.28702C7.71083 4.96183 0.357666 12.6229 0.357666 22.0702C0.357666 31.9542 8.34678 39.9328 18.2437 39.9328C23.9275 39.9328 29.4126 37.5511 32.7911 33.9389C35.6529 30.8427 45.6293 17.5053 48.5706 13.6153C48.7296 13.3771 49.0078 13.0992 49.3258 13.0992C49.6437 13.0992 49.9617 13.3771 50.1207 13.6947C52.6248 17.5847 61.0908 30.5649 63.9129 33.6611C67.2516 37.2733 72.7367 39.655 78.4205 39.655H87.761C88.5162 39.655 89.0726 39.0595 89.0726 38.345V32.9863C89.0726 32.2321 88.4367 31.6366 87.761 31.6366Z" fill="#0076A9"/>
</svg>
