<svg width="207" height="60" viewBox="0 0 207 60" fill="none"
    xmlns="http://www.w3.org/2000/svg">
    <path d="M115.225 36.4093H102.976C98.3988 36.4093 94.0913 34.5002 91.2646 31.5002C88.1686 28.5002 70.2656 1.09092 70.2656 1.09092C69.9964 0.681823 69.458 0.409094 68.9195 0.409094H60.17C59.497 0.409094 58.9585 0.681823 58.6893 1.22728C57.6124 2.72729 38.2288 29.0457 35.2674 31.9093C32.306 34.9093 28.1332 36.8184 23.5565 36.8184C16.2876 36.8184 10.4995 30.9548 10.4995 23.5911C10.4995 16.9092 15.6146 11.3183 22.0758 10.5001C22.8834 10.3637 23.5565 9.68188 23.5565 8.8637V1.77274C23.5565 0.818187 22.7488 0 21.8066 0C9.5572 0.954552 0 11.1819 0 23.5911C0 36.6821 10.4995 47.3185 23.5565 47.3185C31.0946 47.3185 38.3634 44.1821 42.6709 39.4094C46.4399 35.3184 59.6316 17.591 63.4006 12.4092C63.6698 12.1364 63.939 11.7274 64.3429 11.7274C64.7467 11.7274 65.1505 12.1364 65.4197 12.4092C68.7849 17.591 79.8228 34.773 83.5919 38.8639C88.034 43.6367 95.1682 46.773 102.706 46.773H114.686C114.821 46.773 114.956 46.773 115.09 46.773C116.033 46.773 116.84 45.9549 116.84 45.0003V38.1821C116.975 37.2275 116.167 36.4093 115.225 36.4093Z" fill="white"/>
    <path d="M177.418 0.273193H176.476C176.341 0.273193 176.206 0.409558 176.206 0.545922C176.206 1.90957 176.206 8.59143 176.206 8.59143V8.72779V8.86416C176.072 10.5005 175.264 11.5914 173.784 11.5914C172.707 11.5914 172.168 11.3187 171.361 10.3642L171.226 10.2278C171.091 10.0914 171.091 10.0914 170.957 9.95507C170.822 9.95507 170.822 9.95507 170.688 10.0914C170.553 10.0914 170.149 10.5005 170.014 10.6369C169.88 10.7733 169.88 10.7733 169.88 10.9096C169.88 10.9096 169.88 11.046 170.014 11.046C170.957 12.4096 172.168 13.0915 173.784 13.0915C174.86 13.0915 175.803 12.6824 176.61 12.0005C177.418 11.1824 177.822 10.0914 177.822 8.72779V0.682287C177.687 0.409558 177.553 0.273193 177.418 0.273193Z" fill="white"/>
    <path d="M165.17 8.31978H159.786L162.478 2.18338L165.17 8.31978ZM166.786 8.31978C165.305 5.04703 163.69 1.3652 163.286 0.547009C163.286 0.410645 163.151 0.410645 163.017 0.410645H161.94C161.805 0.410645 161.67 0.547009 161.67 0.547009C161.132 1.77429 157.363 9.95615 156.286 12.4107C156.286 12.5471 156.286 12.5471 156.286 12.6834C156.286 12.8198 156.421 12.8198 156.555 12.8198H157.498C157.632 12.8198 157.901 12.6834 157.901 12.5471L159.113 9.81979H165.843L167.055 12.5471C167.189 12.6834 167.324 12.8198 167.459 12.8198H168.401C168.536 12.8198 168.536 12.8198 168.67 12.6834C168.67 12.5471 168.67 12.5471 168.67 12.4107C168.266 11.5925 167.593 10.0925 166.786 8.31978Z" fill="white"/>
    <path d="M188.719 8.31931H183.334L186.027 2.1829L188.719 8.31931ZM192.084 12.4102C191.68 11.5921 191.007 10.092 190.199 8.31931C188.719 5.04655 187.103 1.36471 186.7 0.546521C186.7 0.410156 186.565 0.410156 186.43 0.410156H185.354C185.219 0.410156 185.084 0.546521 185.084 0.546521C184.546 1.7738 180.777 9.95568 179.7 12.4102C179.7 12.5466 179.7 12.5466 179.7 12.683C179.7 12.8193 179.835 12.8193 179.969 12.8193H180.911C181.046 12.8193 181.315 12.683 181.315 12.5466L182.527 9.81932H189.257L190.469 12.5466C190.603 12.683 190.738 12.8193 190.872 12.8193H191.815C191.949 12.8193 191.949 12.8193 192.084 12.683C192.219 12.5466 192.219 12.4102 192.084 12.4102Z" fill="white"/>
    <path d="M154.529 10.6364C154.529 10.6364 154.395 10.5001 154.395 10.3637C154.26 10.2273 154.125 10.091 154.125 10.091C153.991 9.9546 153.856 9.9546 153.856 9.9546C153.722 9.9546 153.722 9.9546 153.722 10.091C152.51 11.1819 151.433 11.591 149.953 11.591C147.26 11.591 145.241 9.40915 145.241 6.54549C145.241 3.68184 147.26 1.50001 149.953 1.50001C151.299 1.50001 152.376 1.9091 153.452 2.86365C153.587 3.00002 153.587 3.00002 153.722 3.00002C153.856 3.00002 153.991 3.00002 154.125 2.86365C154.125 2.72729 154.664 2.18183 154.664 2.04547C154.664 2.04547 154.799 1.9091 154.664 1.77274C154.664 1.77274 154.529 1.63637 154.395 1.50001C153.049 0.409093 151.703 0 149.953 0C146.318 0 143.626 2.86365 143.626 6.54549C143.626 10.2273 146.318 13.091 149.953 13.091C151.837 13.091 153.183 12.5455 154.664 11.1819L154.799 11.0455C154.799 10.9092 154.664 10.9092 154.529 10.6364Z" fill="white"/>
    <path d="M151.029 34.3638H149.145C149.01 34.3638 148.741 34.5001 148.741 34.6365C148.068 36.1365 144.972 43.2275 143.895 45.682L143.626 46.2275C143.626 46.3638 143.626 46.5002 143.626 46.6366C143.626 46.7729 143.761 46.7729 143.895 46.7729H146.318C146.453 46.7729 146.722 46.6366 146.722 46.5002L150.087 38.7274L153.452 46.5002C153.587 46.6366 153.722 46.7729 153.856 46.7729H156.145C156.279 46.7729 156.414 46.7729 156.414 46.6366C156.414 46.5002 156.548 46.3638 156.414 46.2275C155.472 44.182 151.972 36.2729 151.299 34.6365C151.433 34.5001 151.299 34.3638 151.029 34.3638Z" fill="white"/>
    <path d="M194.106 34.3638H185.76C185.491 34.3638 185.356 34.5001 185.356 34.7729C185.356 35.7274 185.356 38.7274 185.356 40.5002C185.356 42.5456 185.356 45.0002 185.356 46.2275C185.356 46.3638 185.356 46.5002 185.491 46.5002C185.625 46.6366 185.625 46.6366 185.76 46.6366H194.106C194.375 46.6366 194.51 46.5002 194.51 46.2275V44.5911C194.51 44.3184 194.24 44.182 194.106 44.182H188.183V41.7275C188.721 41.7275 191.952 41.7275 193.029 41.7275C193.298 41.7275 193.433 41.5911 193.433 41.3184V39.682C193.433 39.4093 193.298 39.2729 193.029 39.2729H188.183V36.9547H194.106C194.375 36.9547 194.51 36.682 194.51 36.5456V34.9092C194.51 34.5001 194.375 34.3638 194.106 34.3638Z" fill="white"/>
    <path d="M202.047 39.2739C199.894 38.7285 199.355 38.4557 199.355 37.6375C199.355 36.9557 199.894 36.5466 200.836 36.5466C201.643 36.5466 202.72 36.9557 203.797 37.6375H203.932C204.066 37.6375 204.201 37.5012 204.336 37.3648C204.47 37.2285 204.874 36.683 205.143 36.2739C205.278 36.1375 205.413 36.0012 205.413 35.8648C205.547 35.7284 205.682 35.4557 205.413 35.3193C204.066 34.3648 202.586 33.8193 200.97 33.8193C198.413 33.8193 196.528 35.4557 196.528 37.6375C196.528 40.2285 198.413 40.9103 200.701 41.5921C202.855 42.1376 203.124 42.5467 203.124 43.0921C203.124 43.774 202.451 44.183 201.374 44.183C200.297 44.183 199.086 43.774 198.009 42.8194C197.74 42.683 197.471 42.683 197.336 42.9558C197.201 43.0921 196.798 43.6376 196.528 44.0467L196.125 44.5921C196.125 44.7285 195.99 44.7285 196.125 44.8649C196.125 45.0012 196.259 45.1376 196.528 45.274C196.528 45.274 196.663 45.4103 196.798 45.4103C198.144 46.3649 199.759 46.774 201.374 46.774C204.201 46.774 206.086 45.274 206.086 42.8194C206.086 40.7739 204.47 39.8194 202.047 39.2739Z" fill="white"/>
    <path d="M169.468 34.3635H167.584C167.315 34.3635 167.18 34.6363 167.18 34.7726V41.7272L161.661 34.4999C161.527 34.3635 161.392 34.3635 161.257 34.3635H159.373C159.104 34.3635 158.969 34.6363 158.969 34.7726V46.3636C158.969 46.6363 159.104 46.7727 159.373 46.7727H161.257C161.527 46.7727 161.661 46.6363 161.661 46.3636C161.661 44.7272 161.661 40.2272 161.661 39.1363L167.315 46.6363C167.449 46.7727 167.584 46.7727 167.718 46.7727H169.468C169.738 46.7727 169.872 46.6363 169.872 46.3636V34.7726C169.872 34.4999 169.738 34.3635 169.468 34.3635Z" fill="white"/>
    <path d="M177.408 44.1818H175.389V36.9545H177.408C179.428 36.9545 180.639 38.3181 180.639 40.6363C180.774 42.8181 179.562 44.1818 177.408 44.1818ZM177.408 34.3635H172.966C172.832 34.3635 172.697 34.3635 172.697 34.4999C172.563 34.6363 172.562 34.6363 172.562 34.7726C172.562 35.1817 172.562 35.9999 172.562 36.409V44.5909C172.562 45 172.562 45.5454 172.562 45.9545V46.3636C172.562 46.6363 172.832 46.7727 172.966 46.7727H177.408C181.043 46.7727 183.6 44.1818 183.6 40.4999C183.6 38.7272 183.062 37.2272 181.985 36.1363C180.908 34.909 179.293 34.3635 177.408 34.3635Z" fill="white"/>
    <path d="M153.991 27.1357H148.202V17.863C148.202 17.5902 147.933 17.4539 147.799 17.4539H145.78C145.51 17.4539 145.376 17.7266 145.376 17.863V29.3176C145.376 29.5903 145.645 29.7267 145.78 29.7267H153.991C154.26 29.7267 154.394 29.4539 154.394 29.3176V27.5448C154.394 27.2721 154.26 27.1357 153.991 27.1357Z" fill="white"/>
    <path d="M158.434 23.4553C158.434 21.2735 160.049 19.6371 162.069 19.6371C164.088 19.6371 165.703 21.2735 165.703 23.4553C165.703 25.6371 164.088 27.2735 162.069 27.2735C160.049 27.4099 158.434 25.7735 158.434 23.4553ZM162.069 17.0461C158.3 17.0461 155.338 19.9098 155.338 23.5917C155.338 27.2735 158.165 30.1372 162.069 30.1372C165.838 30.1372 168.799 27.2735 168.799 23.5917C168.799 19.7734 165.972 17.0461 162.069 17.0461Z" fill="white"/>
    <path d="M175.937 22.227C173.784 21.6816 173.245 21.4089 173.245 20.5907C173.245 19.9088 173.784 19.4998 174.726 19.4998C175.533 19.4998 176.61 19.9088 177.687 20.5907H177.822C177.956 20.5907 178.091 20.4543 178.226 20.3179C178.36 20.1816 178.629 19.7725 178.899 19.3634C179.033 19.0907 179.168 18.9543 179.168 18.8179C179.303 18.6816 179.437 18.4088 179.168 18.2725C177.822 17.3179 176.341 16.7725 174.726 16.7725C172.168 16.7725 170.284 18.4088 170.284 20.5907C170.284 23.1816 172.168 23.8634 174.457 24.5452C176.61 25.0907 176.88 25.4998 176.88 26.0453C176.88 26.7271 176.207 27.1362 175.13 27.1362C174.053 27.1362 172.841 26.7271 171.764 25.7725C171.495 25.6362 171.226 25.6362 171.091 25.9089C170.957 26.0453 170.553 26.5907 170.284 26.9998L169.88 27.5453C169.88 27.6816 169.745 27.6816 169.88 27.818C169.88 27.9544 170.149 28.0907 170.284 28.2271H170.418L170.553 28.3635C171.899 29.318 173.514 29.7271 175.13 29.7271C177.956 29.7271 179.841 28.2271 179.841 25.7725C179.976 23.7271 178.36 22.9089 175.937 22.227Z" fill="white"/>
    <path d="M130.03 46.9113H123.031C122.088 46.9113 121.281 46.0932 121.281 45.1386V38.0476C121.281 37.0931 122.088 36.2749 123.031 36.2749H130.03C130.973 36.2749 131.78 37.0931 131.78 38.0476V45.1386C131.78 46.0932 130.973 46.9113 130.03 46.9113Z" fill="#F9BE00"/>
    <path d="M145.644 53.864C144.567 53.864 143.894 54.5458 143.894 55.364C143.894 57.1367 146.451 57.0004 146.451 58.2276C146.451 58.9094 145.913 59.0458 145.374 59.0458C144.836 59.0458 144.432 58.9094 144.163 58.6367L143.894 59.1822C144.298 59.4549 144.836 59.5912 145.509 59.5912C146.586 59.5912 147.394 59.0458 147.394 57.9549C147.394 56.1822 144.836 56.3185 144.836 55.0913C144.836 54.5458 145.374 54.2731 145.778 54.2731C146.182 54.2731 146.721 54.4095 147.124 54.5458V53.864C146.721 54.0004 146.182 53.864 145.644 53.864Z" fill="white"/>
    <path d="M151.035 53.864C149.419 53.864 148.208 55.0913 148.208 56.864C148.208 58.6368 149.419 59.864 151.035 59.864C152.65 59.864 153.862 58.6368 153.862 56.864C153.862 55.0913 152.785 53.864 151.035 53.864ZM151.035 59.1822C149.823 59.1822 149.016 58.2277 149.016 56.864C149.016 55.5004 149.823 54.5458 151.035 54.5458C152.381 54.5458 153.054 55.5004 153.054 56.864C153.054 58.2277 152.246 59.1822 151.035 59.1822Z" fill="white"/>
    <path d="M160.723 54H160.05L158.569 56.3182C158.3 56.7273 158.165 57 158.031 57.1364C157.896 56.8637 157.761 56.7273 157.492 56.3182L155.877 54H155.204V59.8637H156.012V56.3182C156.012 56.0455 156.012 55.6364 156.012 55.5C156.146 55.7728 156.281 55.9091 156.415 56.1818L157.896 58.3637H158.3L159.646 56.1818C159.781 56.0455 159.915 55.7728 160.05 55.5C160.05 55.7728 160.05 56.1818 160.05 56.4546V60.0001H160.857V54H160.723Z" fill="white"/>
    <path d="M164.759 53.864C163.144 53.864 161.932 55.0913 161.932 56.864C161.932 58.6368 163.144 59.864 164.759 59.864C166.374 59.864 167.586 58.6368 167.586 56.864C167.586 55.0913 166.374 53.864 164.759 53.864ZM164.759 59.1822C163.548 59.1822 162.74 58.2277 162.74 56.864C162.74 55.5004 163.548 54.5458 164.759 54.5458C166.105 54.5458 166.778 55.5004 166.778 56.864C166.778 58.2277 165.971 59.1822 164.759 59.1822Z" fill="white"/>
    <path d="M170.421 53.864C169.344 53.864 168.671 54.5458 168.671 55.364C168.671 57.1367 171.229 57.0004 171.229 58.2276C171.229 58.9094 170.69 59.0458 170.152 59.0458C169.613 59.0458 169.21 58.9094 168.94 58.6367L168.671 59.1822C169.075 59.4549 169.613 59.5912 170.286 59.5912C171.363 59.5912 172.171 59.0458 172.171 57.9549C172.171 56.1822 169.613 56.3185 169.613 55.0913C169.613 54.5458 170.152 54.2731 170.556 54.2731C170.96 54.2731 171.498 54.4095 171.902 54.5458V53.864C171.498 54.0004 170.96 53.864 170.421 53.864Z" fill="white"/>
    <path d="M177.814 53.864C176.065 53.864 174.853 55.2277 174.853 56.8641C174.853 58.6368 175.93 59.7278 177.68 59.7278C178.218 59.7278 178.757 59.5914 179.43 59.3187L179.161 58.6368C178.757 58.9096 178.353 59.0459 177.814 59.0459C176.603 59.0459 175.795 58.0914 175.795 56.7277C175.795 55.5004 176.603 54.4095 177.949 54.4095C178.487 54.4095 179.026 54.5458 179.43 54.8186V54.1367C179.026 54.0004 178.487 53.864 177.814 53.864Z" fill="white"/>
    <path d="M183.07 53.864C181.32 53.864 180.108 55.2277 180.108 56.8641C180.108 58.6368 181.185 59.7278 182.935 59.7278C183.473 59.7278 184.012 59.5914 184.685 59.3187L184.416 58.6368C184.012 58.9096 183.608 59.0459 183.07 59.0459C181.858 59.0459 181.05 58.0914 181.05 56.7277C181.05 55.5004 181.858 54.4095 183.204 54.4095C183.743 54.4095 184.281 54.5458 184.685 54.8186V54.1367C184.281 54.0004 183.743 53.864 183.07 53.864Z" fill="white"/>
    <path d="M186.439 53.5908H185.631V59.8637H186.439V56.8636C186.842 56.5909 187.246 56.3181 187.65 56.3181C188.188 56.3181 188.323 56.7272 188.323 57.4091V60H189.131V57.1363C189.131 56.0454 188.458 55.6363 187.919 55.6363C187.381 55.6363 186.977 55.909 186.439 56.1818V53.5908Z" fill="white"/>
    <path d="M193.029 53.864C191.28 53.864 190.068 55.2277 190.068 56.8641C190.068 58.6368 191.145 59.7278 192.895 59.7278C193.433 59.7278 193.972 59.5914 194.645 59.3187L194.376 58.6368C193.972 58.9096 193.568 59.0459 193.029 59.0459C191.818 59.0459 191.01 58.0914 191.01 56.7277C191.01 55.5004 191.818 54.4095 193.164 54.4095C193.703 54.4095 194.241 54.5458 194.645 54.8186V54.1367C194.106 54.0004 193.568 53.864 193.029 53.864Z" fill="white"/>
</svg>
